<?xml version="1.0" standalone="no"?>
<!DOCTYPE svg PUBLIC "-//W3C//DTD SVG 1.1//EN" "http://www.w3.org/Graphics/SVG/1.1/DTD/svg11.dtd" >
<svg xmlns="http://www.w3.org/2000/svg">
<metadata>Generated by IcoMoon</metadata>
<defs>
<font id="icons" horiz-adv-x="1024">
<font-face units-per-em="1024" ascent="960" descent="-64" />
<missing-glyph horiz-adv-x="1024" />
<glyph unicode="&#x20;" horiz-adv-x="512" d="" />
<glyph unicode="&#xe604;" glyph-name="account-box" d="M128 725.334v-597.333c0-47.147 38.187-85.333 85.333-85.333h597.333c47.147 0 85.333 38.187 85.333 85.333v597.333c0 47.147-38.187 85.333-85.333 85.333h-597.333c-47.147 0-85.333-38.187-85.333-85.333zM640 554.667c0-70.827-57.387-128-128-128s-128 57.173-128 128c0 70.613 57.387 128 128 128s128-57.387 128-128zM256 213.334c0 85.333 170.667 132.267 256 132.267s256-46.933 256-132.267v-42.667h-512v42.667z" />
<glyph unicode="&#xe605;" glyph-name="account-child" d="M704 426.667c58.88 0 106.24 47.787 106.24 106.667s-47.36 106.667-106.24 106.667c-58.88 0-106.667-47.787-106.667-106.667s47.787-106.667 106.667-106.667zM384 469.334c70.613 0 127.573 57.387 127.573 128s-56.96 128-127.573 128c-70.613 0-128-57.387-128-128s57.387-128 128-128zM704 341.334c-78.293 0-234.667-39.253-234.667-117.333v-96h469.333v96c0 78.080-156.373 117.333-234.667 117.333zM384 384c-99.627 0-298.667-49.92-298.667-149.333v-106.667h298.667v96c0 36.267 14.293 99.627 101.12 148.053-37.12 7.893-73.173 11.947-101.12 11.947z" />
<glyph unicode="&#xe606;" glyph-name="account-circle" d="M512 853.334c-235.733 0-426.667-190.933-426.667-426.667s190.933-426.667 426.667-426.667 426.667 190.933 426.667 426.667-190.933 426.667-426.667 426.667zM512 725.334c70.613 0 128-57.387 128-128 0-70.827-57.387-128-128-128s-128 57.173-128 128c0 70.613 57.387 128 128 128zM512 119.467c-106.88 0-200.747 54.613-256 137.387 1.067 84.693 170.88 131.413 256 131.413s254.72-46.72 256-131.413c-55.253-82.773-149.12-137.387-256-137.387z" />
<glyph unicode="&#xe607;" glyph-name="add-shopping-cart" d="M469.333 554.667h85.333v128h128v85.333h-128v128h-85.333v-128h-128v-85.333h128v-128zM298.667 170.667c-47.147 0-84.907-38.187-84.907-85.333s37.76-85.333 84.907-85.333 85.333 38.187 85.333 85.333-38.187 85.333-85.333 85.333zM725.333 170.667c-47.147 0-84.907-38.187-84.907-85.333s37.76-85.333 84.907-85.333 85.333 38.187 85.333 85.333-38.187 85.333-85.333 85.333zM306.133 309.334c0 1.92 0.427 3.627 1.28 5.12l38.4 69.547h317.867c32 0 59.947 17.707 74.667 43.947l164.693 299.093-74.667 40.96h-0.213l-47.147-85.333-117.547-213.333h-299.307l-5.547 11.52-136.32 287.147-40.32 85.333h-139.307v-85.333h85.333l153.6-323.627-57.813-104.533c-6.613-12.373-10.453-26.24-10.453-41.173 0-47.147 38.187-85.333 85.333-85.333h512v85.333h-493.867c-5.973 0-10.667 4.693-10.667 10.667z" />
<glyph unicode="&#xe608;" glyph-name="alarm" d="M938.667 694.614l-196.053 164.48-54.827-65.28 196.053-164.48 54.827 65.28zM336.213 794.027l-54.827 65.28-196.053-164.48 54.827-65.28 196.053 164.48zM533.333 597.334h-64v-256l202.453-121.813 32.213 52.693-170.667 101.12v224zM511.787 768c-212.267 0-383.787-171.947-383.787-384s171.52-384 383.787-384 384.213 171.947 384.213 384-171.947 384-384.213 384zM512 85.334c-164.907 0-298.667 133.76-298.667 298.667s133.76 298.667 298.667 298.667 298.667-133.76 298.667-298.667-133.547-298.667-298.667-298.667z" />
<glyph unicode="&#xe609;" glyph-name="alarm-add" d="M336.213 794.027l-54.827 65.28-196.053-164.48 54.827-65.28 196.053 164.48zM938.667 694.614l-196.053 164.48-54.827-65.28 196.053-164.48 54.827 65.28zM511.787 768c-212.267 0-383.787-171.947-383.787-384s171.52-384 383.787-384 384.213 171.947 384.213 384-171.947 384-384.213 384zM512 85.334c-164.907 0-298.667 133.76-298.667 298.667s133.76 298.667 298.667 298.667 298.667-133.76 298.667-298.667-133.547-298.667-298.667-298.667zM554.667 554.667h-85.333v-128h-128v-85.333h128v-128h85.333v128h128v85.333h-128v128z" />
<glyph unicode="&#xe60a;" glyph-name="alarm-off" d="M512 682.667c164.907 0 298.667-133.76 298.667-298.667 0-36.053-6.613-70.4-18.347-102.4l64.853-64.853c24.747 50.56 38.827 107.307 38.827 167.253 0 212.053-171.947 384-384.213 384-59.947 0-116.48-14.080-167.253-38.613l65.067-65.067c32 11.733 66.347 18.347 102.4 18.347zM938.667 694.614l-196.053 164.48-54.827-65.28 196.053-164.48 54.827 65.28zM124.587 840.747l-54.4-54.187 56.747-56.747-47.36-39.68 60.587-60.587 47.36 39.68 34.133-34.133c-58.24-67.413-93.653-155.093-93.653-251.093 0-212.053 171.52-384 383.787-384 96.213 0 183.893 35.627 251.093 93.867l93.867-93.867 54.187 54.4-786.347 786.347zM702.72 154.027c-51.84-42.88-118.187-68.693-190.72-68.693-164.907 0-298.667 133.76-298.667 298.667 0 72.533 25.813 138.88 68.693 190.72l420.693-420.693zM341.973 798.934l-60.587 60.587-36.267-30.507 60.587-60.587 36.267 30.507z" />
<glyph unicode="&#xe60b;" glyph-name="alarm-on" d="M938.667 694.614l-196.053 164.48-54.827-65.28 196.053-164.48 54.827 65.28zM336.213 794.027l-54.827 65.28-196.053-164.48 54.827-65.28 196.053 164.48zM511.787 768c-212.267 0-383.787-171.947-383.787-384s171.52-384 383.787-384 384.213 171.947 384.213 384-171.947 384-384.213 384zM512 85.334c-164.907 0-298.667 133.76-298.667 298.667s133.76 298.667 298.667 298.667 298.667-133.76 298.667-298.667-133.547-298.667-298.667-298.667zM449.493 318.934l-90.453 90.453-45.227-45.227 135.68-135.68 256.213 256.213-45.227 45.227-210.987-210.987z" />
<glyph unicode="&#xe60d;" glyph-name="announcement" d="M853.333 853.334h-682.667c-47.147 0-84.907-38.187-84.907-85.333l-0.427-768 170.667 170.667h597.333c47.147 0 85.333 38.187 85.333 85.333v512c0 47.147-38.187 85.333-85.333 85.333zM554.667 469.334h-85.333v256h85.333v-256zM554.667 298.667h-85.333v85.333h85.333v-85.333z" />
<glyph unicode="&#xe60e;" glyph-name="aspect-ratio" d="M810.667 426.667h-85.333v-128h-128v-85.333h213.333v213.333zM298.667 554.667h128v85.333h-213.333v-213.333h85.333v128zM896 810.667h-768c-47.147 0-85.333-38.187-85.333-85.333v-597.333c0-47.147 38.187-85.333 85.333-85.333h768c47.147 0 85.333 38.187 85.333 85.333v597.333c0 47.147-38.187 85.333-85.333 85.333zM896 127.36h-768v598.613h768v-598.613z" />
<glyph unicode="&#xe60f;" glyph-name="assessment" d="M810.667 810.667h-597.333c-47.147 0-85.333-38.187-85.333-85.333v-597.333c0-47.147 38.187-85.333 85.333-85.333h597.333c47.147 0 85.333 38.187 85.333 85.333v597.333c0 47.147-38.187 85.333-85.333 85.333zM384 213.334h-85.333v298.667h85.333v-298.667zM554.667 213.334h-85.333v426.667h85.333v-426.667zM725.333 213.334h-85.333v170.667h85.333v-170.667z" />
<glyph unicode="&#xe610;" glyph-name="assignment" d="M810.667 810.667h-178.56c-17.493 49.493-64.427 85.333-120.107 85.333s-102.613-35.84-120.107-85.333h-178.56c-47.147 0-85.333-38.187-85.333-85.333v-597.333c0-47.147 38.187-85.333 85.333-85.333h597.333c47.147 0 85.333 38.187 85.333 85.333v597.333c0 47.147-38.187 85.333-85.333 85.333zM512 810.667c23.467 0 42.667-18.987 42.667-42.667s-19.2-42.667-42.667-42.667-42.667 18.987-42.667 42.667 19.2 42.667 42.667 42.667zM597.333 213.334h-298.667v85.333h298.667v-85.333zM725.333 384h-426.667v85.333h426.667v-85.333zM725.333 554.667h-426.667v85.333h426.667v-85.333z" />
<glyph unicode="&#xe611;" glyph-name="assignment-ind" d="M810.667 810.667h-178.56c-17.493 49.493-64.427 85.333-120.107 85.333s-102.613-35.84-120.107-85.333h-178.56c-47.147 0-85.333-38.187-85.333-85.333v-597.333c0-47.147 38.187-85.333 85.333-85.333h597.333c47.147 0 85.333 38.187 85.333 85.333v597.333c0 47.147-38.187 85.333-85.333 85.333zM512 810.667c23.467 0 42.667-18.987 42.667-42.667s-19.2-42.667-42.667-42.667-42.667 18.987-42.667 42.667 19.2 42.667 42.667 42.667zM512 640c70.613 0 128-57.387 128-128 0-70.827-57.387-128-128-128s-128 57.173-128 128c0 70.613 57.387 128 128 128zM768 128h-512v59.733c0 85.333 170.667 132.267 256 132.267s256-46.933 256-132.267v-59.733z" />
<glyph unicode="&#xe612;" glyph-name="assignment-late" d="M810.667 810.667h-178.56c-17.493 49.493-64.427 85.333-120.107 85.333s-102.613-35.84-120.107-85.333h-178.56c-47.147 0-85.333-38.187-85.333-85.333v-597.333c0-47.147 38.187-85.333 85.333-85.333h597.333c47.147 0 85.333 38.187 85.333 85.333v597.333c0 47.147-38.187 85.333-85.333 85.333zM554.667 170.667h-85.333v85.333h85.333v-85.333zM554.667 341.334h-85.333v256h85.333v-256zM512 725.334c-23.467 0-42.667 18.987-42.667 42.667s19.2 42.667 42.667 42.667 42.667-18.987 42.667-42.667-19.2-42.667-42.667-42.667z" />
<glyph unicode="&#xe613;" glyph-name="assignment-return" d="M810.667 810.667h-178.56c-17.493 49.493-64.427 85.333-120.107 85.333s-102.613-35.84-120.107-85.333h-178.56c-47.147 0-85.333-38.187-85.333-85.333v-597.333c0-47.147 38.187-85.333 85.333-85.333h597.333c47.147 0 85.333 38.187 85.333 85.333v597.333c0 47.147-38.187 85.333-85.333 85.333zM512 810.667c23.467 0 42.667-18.987 42.667-42.667s-19.2-42.667-42.667-42.667-42.667 18.987-42.667 42.667 19.2 42.667 42.667 42.667zM682.667 298.667h-170.667v-128l-213.333 213.333 213.333 213.333v-128h170.667v-170.667z" />
<glyph unicode="&#xe614;" glyph-name="assignment-returned" d="M810.667 810.667h-178.56c-17.493 49.493-64.427 85.333-120.107 85.333s-102.613-35.84-120.107-85.333h-178.56c-47.147 0-85.333-38.187-85.333-85.333v-597.333c0-47.147 38.187-85.333 85.333-85.333h597.333c47.147 0 85.333 38.187 85.333 85.333v597.333c0 47.147-38.187 85.333-85.333 85.333zM512 810.667c23.467 0 42.667-18.987 42.667-42.667s-19.2-42.667-42.667-42.667-42.667 18.987-42.667 42.667 19.2 42.667 42.667 42.667zM512 170.667l-213.333 213.333h128v170.667h170.667v-170.667h128l-213.333-213.333z" />
<glyph unicode="&#xe615;" glyph-name="assignment-turned-in" d="M810.667 810.667h-178.56c-17.493 49.493-64.427 85.333-120.107 85.333s-102.613-35.84-120.107-85.333h-178.56c-47.147 0-85.333-38.187-85.333-85.333v-597.333c0-47.147 38.187-85.333 85.333-85.333h597.333c47.147 0 85.333 38.187 85.333 85.333v597.333c0 47.147-38.187 85.333-85.333 85.333zM512 810.667c23.467 0 42.667-18.987 42.667-42.667s-19.2-42.667-42.667-42.667-42.667 18.987-42.667 42.667 19.2 42.667 42.667 42.667zM426.667 213.334l-170.667 170.667 60.373 60.373 110.293-110.293 280.96 280.96 60.373-60.373-341.333-341.333z" />
<glyph unicode="&#xe616;" glyph-name="autorenew" d="M512 682.667v-128l170.667 170.667-170.667 170.667v-128c-188.587 0-341.333-152.747-341.333-341.333 0-66.987 19.627-129.067 52.907-181.76l62.293 62.293c-18.987 35.627-29.867 76.16-29.867 119.467 0 141.44 114.56 256 256 256zM800.427 608.427l-62.293-62.293c18.987-35.627 29.867-76.16 29.867-119.467 0-141.44-114.56-256-256-256v128l-170.667-170.667 170.667-170.667v128c188.587 0 341.333 152.747 341.333 341.333 0 66.987-19.627 129.067-52.907 181.76z" />
<glyph unicode="&#xe617;" glyph-name="backup" d="M825.813 510.507c-29.013 146.773-158.507 257.493-313.813 257.493-123.307 0-230.187-69.973-283.733-172.16-128.213-13.867-228.267-122.453-228.267-254.507 0-141.44 114.56-256 256-256h554.667c117.76 0 213.333 95.573 213.333 213.333 0 112.64-87.68 203.947-198.187 211.84zM597.333 384v-170.667h-170.667v170.667h-128l213.333 213.333 213.333-213.333h-128z" />
<glyph unicode="&#xe618;" glyph-name="book" d="M768 853.334h-512c-47.147 0-85.333-38.187-85.333-85.333v-682.667c0-47.147 38.187-85.333 85.333-85.333h512c47.147 0 85.333 38.187 85.333 85.333v682.667c0 47.147-38.187 85.333-85.333 85.333zM256 768h213.333v-341.333l-106.667 64-106.667-64v341.333z" />
<glyph unicode="&#xe619;" glyph-name="bookmark" d="M725.333 810.667h-426.667c-47.147 0-84.907-38.187-84.907-85.333l-0.427-682.667 298.667 128 298.667-128v682.667c0 47.147-38.187 85.333-85.333 85.333z" />
<glyph unicode="&#xe61a;" glyph-name="bookmark-outline" d="M725.333 810.667h-426.667c-47.147 0-84.907-38.187-84.907-85.333l-0.427-682.667 298.667 128 298.667-128v682.667c0 47.147-38.187 85.333-85.333 85.333zM725.333 170.667l-213.333 92.8-213.333-92.8v554.667h426.667v-554.667z" />
<glyph unicode="&#xe61b;" glyph-name="bug-report" d="M853.333 597.334h-119.893c-19.2 33.28-45.653 62.080-77.44 83.627l69.333 69.333-60.373 60.373-92.8-92.8c-19.2 4.693-39.467 7.467-60.16 7.467s-40.96-2.773-60.16-7.467l-92.8 92.8-60.373-60.373 69.333-69.333c-31.787-21.547-58.24-50.347-77.44-83.627h-119.893v-85.333h89.173c-2.347-13.867-3.84-28.16-3.84-42.667v-42.667h-85.333v-85.333h85.333v-42.667c0-14.507 1.493-28.8 3.84-42.667h-89.173v-85.333h119.893c44.16-76.373 126.72-128 221.44-128s177.28 51.627 221.44 128h119.893v85.333h-89.173c2.347 13.867 3.84 28.16 3.84 42.667v42.667h85.333v85.333h-85.333v42.667c0 14.507-1.493 28.8-3.84 42.667h89.173v85.333zM597.333 256h-170.667v85.333h170.667v-85.333zM597.333 426.667h-170.667v85.333h170.667v-85.333z" />
<glyph unicode="&#xe61c;" glyph-name="cached" d="M810.667 597.334l-170.667-170.667h128c0-141.44-114.56-256-256-256-43.307 0-83.84 10.88-119.68 29.653l-62.293-62.293c52.907-33.067 114.987-52.693 181.973-52.693 188.587 0 341.333 152.747 341.333 341.333h128l-170.667 170.667zM256 426.667c0 141.44 114.56 256 256 256 43.307 0 83.84-10.88 119.68-29.653l62.293 62.293c-52.907 33.067-114.987 52.693-181.973 52.693-188.587 0-341.333-152.747-341.333-341.333h-128l170.667-170.667 170.667 170.667h-128z" />
<glyph unicode="&#xe61d;" glyph-name="class" d="M768 853.334h-512c-47.147 0-85.333-38.187-85.333-85.333v-682.667c0-47.147 38.187-85.333 85.333-85.333h512c47.147 0 85.333 38.187 85.333 85.333v682.667c0 47.147-38.187 85.333-85.333 85.333zM256 768h213.333v-341.333l-106.667 64-106.667-64v341.333z" />
<glyph unicode="&#xe61e;" glyph-name="credit-card" d="M853.333 768h-682.667c-47.147 0-84.907-38.187-84.907-85.333l-0.427-512c0-47.147 38.187-85.333 85.333-85.333h682.667c47.147 0 85.333 38.187 85.333 85.333v512c0 47.147-38.187 85.333-85.333 85.333zM853.333 170.667h-682.667v256h682.667v-256zM853.333 597.334h-682.667v85.333h682.667v-85.333z" />
<glyph unicode="&#xe61f;" glyph-name="dashboard" d="M128 384h341.333v426.667h-341.333v-426.667zM128 42.667h341.333v256h-341.333v-256zM554.667 42.667h341.333v426.667h-341.333v-426.667zM554.667 810.667v-256h341.333v256h-341.333z" />
<glyph unicode="&#xe620;" glyph-name="delete" d="M256 128c0-47.147 38.187-85.333 85.333-85.333h341.333c47.147 0 85.333 38.187 85.333 85.333v512h-512v-512zM810.667 768h-149.333l-42.667 42.667h-213.333l-42.667-42.667h-149.333v-85.333h597.333v85.333z" />
<glyph unicode="&#xe621;" glyph-name="description" d="M597.333 853.334h-341.333c-47.147 0-84.907-38.187-84.907-85.333l-0.427-682.667c0-47.147 37.76-85.333 84.907-85.333h512.427c47.147 0 85.333 38.187 85.333 85.333v512l-256 256zM682.667 170.667h-341.333v85.333h341.333v-85.333zM682.667 341.334h-341.333v85.333h341.333v-85.333zM554.667 554.667v234.667l234.667-234.667h-234.667z" />
<glyph unicode="&#xe622;" glyph-name="dns" d="M853.333 384h-682.667c-23.467 0-42.667-19.2-42.667-42.667v-256c0-23.467 19.2-42.667 42.667-42.667h682.667c23.467 0 42.667 19.2 42.667 42.667v256c0 23.467-19.2 42.667-42.667 42.667zM298.667 128c-47.147 0-85.333 38.187-85.333 85.333s38.187 85.333 85.333 85.333 85.333-38.187 85.333-85.333-38.187-85.333-85.333-85.333zM853.333 810.667h-682.667c-23.467 0-42.667-19.2-42.667-42.667v-256c0-23.467 19.2-42.667 42.667-42.667h682.667c23.467 0 42.667 19.2 42.667 42.667v256c0 23.467-19.2 42.667-42.667 42.667zM298.667 554.667c-47.147 0-85.333 38.187-85.333 85.333s38.187 85.333 85.333 85.333 85.333-38.187 85.333-85.333-38.187-85.333-85.333-85.333z" />
<glyph unicode="&#xe623;" glyph-name="done" d="M384 248.747l-177.92 177.92-60.373-60.373 238.293-238.293 512 512-60.373 60.373z" />
<glyph unicode="&#xe624;" glyph-name="done-all" d="M768 640l-60.373 60.373-270.507-270.72 60.373-60.373 270.507 270.72zM949.12 700.374l-451.84-451.627-177.92 177.92-60.373-60.373 238.293-238.293 512 512-60.16 60.373zM17.707 366.294l238.293-238.293 60.373 60.373-238.293 238.293-60.373-60.373z" />
<glyph unicode="&#xe625;" glyph-name="event" d="M725.333 426.667h-213.333v-213.333h213.333v213.333zM682.667 896v-85.333h-341.333v85.333h-85.333v-85.333h-42.667c-47.147 0-84.907-38.187-84.907-85.333l-0.427-597.333c0-47.147 38.187-85.333 85.333-85.333h597.333c47.147 0 85.333 38.187 85.333 85.333v597.333c0 47.147-38.187 85.333-85.333 85.333h-42.667v85.333h-85.333zM810.667 128h-597.333v469.333h597.333v-469.333z" />
<glyph unicode="&#xe626;" glyph-name="exit-to-app" d="M430.293 273.707l60.373-60.373 213.333 213.333-213.333 213.333-60.373-60.373 110.293-110.293h-412.587v-85.333h412.587l-110.293-110.293zM810.667 810.667h-597.333c-47.147 0-85.333-38.187-85.333-85.333v-170.667h85.333v170.667h597.333v-597.333h-597.333v170.667h-85.333v-170.667c0-47.147 38.187-85.333 85.333-85.333h597.333c47.147 0 85.333 38.187 85.333 85.333v597.333c0 47.147-38.187 85.333-85.333 85.333z" />
<glyph unicode="&#xe627;" glyph-name="explore" d="M512 473.6c-25.813 0-46.933-21.12-46.933-46.933s21.12-46.933 46.933-46.933c26.027 0 46.933 21.12 46.933 46.933s-20.907 46.933-46.933 46.933zM512 853.334c-235.733 0-426.667-190.933-426.667-426.667 0-235.52 190.933-426.667 426.667-426.667s426.667 191.147 426.667 426.667c0 235.733-190.933 426.667-426.667 426.667zM605.44 333.227l-349.44-162.56 162.56 349.44 349.44 162.56-162.56-349.44z" />
<glyph unicode="&#xe628;" glyph-name="extension" d="M874.667 469.334h-64v170.667c0 47.147-38.187 85.333-85.333 85.333h-170.667v64c0 58.88-47.787 106.667-106.667 106.667s-106.667-47.787-106.667-106.667v-64h-170.667c-47.147 0-84.907-38.187-84.907-85.333l-0.213-162.133h63.787c63.573 0 115.2-51.627 115.2-115.2s-51.627-115.2-115.2-115.2h-63.787l-0.213-162.133c0-47.147 38.187-85.333 85.333-85.333h162.133v64c0 63.573 51.627 115.2 115.2 115.2s115.2-51.627 115.2-115.2v-64h162.133c47.147 0 85.333 38.187 85.333 85.333v170.667h64c58.88 0 106.667 47.787 106.667 106.667s-47.787 106.667-106.667 106.667z" />
<glyph unicode="&#xe62a;" glyph-name="favorite" d="M512 27.734l-61.867 56.107c-219.733 199.467-364.8 331.093-364.8 492.16 0 131.627 103.040 234.667 234.667 234.667 74.24 0 145.493-34.56 192-88.96 46.507 54.4 117.76 88.96 192 88.96 131.627 0 234.667-103.040 234.667-234.667 0-161.067-145.067-292.693-364.8-492.16l-61.867-56.107z" />
<glyph unicode="&#xe62b;" glyph-name="favorite-outline" d="M704 810.667c-74.24 0-145.493-34.56-192-88.96-46.507 54.4-117.76 88.96-192 88.96-131.627 0-234.667-103.040-234.667-234.667 0-161.067 145.067-292.693 364.8-492.16l61.867-56.107 61.867 56.107c219.733 199.467 364.8 331.093 364.8 492.16 0 131.627-103.040 234.667-234.667 234.667zM516.48 146.987l-4.48-4.053-4.48 4.053c-202.88 184.107-336.853 305.707-336.853 429.013 0 85.12 64.213 149.333 149.333 149.333 65.707 0 129.707-42.453 152.107-100.693h79.573c22.613 58.24 86.613 100.693 152.32 100.693 85.12 0 149.333-64.213 149.333-149.333 0-123.307-133.973-244.907-336.853-429.013z" />
<glyph unicode="&#xe62c;" glyph-name="find-in-page" d="M853.333 103.040v494.293l-256 256h-341.333c-47.147 0-84.907-38.187-84.907-85.333l-0.427-682.667c0-47.147 37.76-85.333 84.907-85.333h512.427c18.987 0 36.48 6.4 50.56 17.067l-189.227 189.227c-33.493-22.4-73.813-35.627-117.333-35.627-117.76 0-213.333 95.573-213.333 213.333s95.573 213.333 213.333 213.333 213.333-95.573 213.333-213.333c0-43.52-13.227-83.84-35.413-117.547l163.413-163.413zM384 384c0-70.613 57.387-128 128-128s128 57.387 128 128-57.387 128-128 128-128-57.387-128-128z" />
<glyph unicode="&#xe62d;" glyph-name="find-replace" d="M469.333 682.667c58.88 0 112.213-23.893 150.827-62.507l-108.16-108.16h256v256l-87.467-87.467c-53.973 53.973-128.64 87.467-211.2 87.467-150.4 0-274.56-111.36-295.253-256h86.187c19.84 97.28 105.813 170.667 209.067 170.667zM709.973 292.907c28.373 38.613 47.573 84.267 54.613 133.76h-86.187c-19.84-97.28-105.813-170.667-209.067-170.667-58.88 0-112.213 23.893-150.827 62.507l108.16 108.16h-256v-256l87.467 87.467c53.973-53.973 128.64-87.467 211.2-87.467 66.133 0 127.147 21.76 176.64 58.24l207.36-207.147 63.573 63.573-206.933 207.573z" />
<glyph unicode="&#xe62e;" glyph-name="flip-to-back" d="M384 640h-85.333v-85.333h85.333v85.333zM384 469.334h-85.333v-85.333h85.333v85.333zM384 810.667c-47.147 0-85.333-38.187-85.333-85.333h85.333v85.333zM554.667 298.667h-85.333v-85.333h85.333v85.333zM810.667 810.667v-85.333h85.333c0 47.147-38.187 85.333-85.333 85.333zM554.667 810.667h-85.333v-85.333h85.333v85.333zM384 213.334v85.333h-85.333c0-47.147 38.187-85.333 85.333-85.333zM810.667 384h85.333v85.333h-85.333v-85.333zM810.667 554.667h85.333v85.333h-85.333v-85.333zM810.667 213.334c47.147 0 85.333 38.187 85.333 85.333h-85.333v-85.333zM213.333 640h-85.333v-512c0-47.147 38.187-85.333 85.333-85.333h512v85.333h-512v512zM640 725.334h85.333v85.333h-85.333v-85.333zM640 213.334h85.333v85.333h-85.333v-85.333z" />
<glyph unicode="&#xe62f;" glyph-name="flip-to-front" d="M128 384h85.333v85.333h-85.333v-85.333zM128 213.334h85.333v85.333h-85.333v-85.333zM213.333 42.667v85.333h-85.333c0-47.147 38.187-85.333 85.333-85.333zM128 554.667h85.333v85.333h-85.333v-85.333zM640 42.667h85.333v85.333h-85.333v-85.333zM810.667 810.667h-426.667c-47.147 0-85.333-38.187-85.333-85.333v-426.667c0-47.147 38.187-85.333 85.333-85.333h426.667c47.147 0 85.333 38.187 85.333 85.333v426.667c0 47.147-38.187 85.333-85.333 85.333zM810.667 298.667h-426.667v426.667h426.667v-426.667zM469.333 42.667h85.333v85.333h-85.333v-85.333zM298.667 42.667h85.333v85.333h-85.333v-85.333z" />
<glyph unicode="&#xe630;" glyph-name="get-app" d="M810.667 554.667h-170.667v256h-256v-256h-170.667l298.667-298.667 298.667 298.667zM213.333 170.667v-85.333h597.333v85.333h-597.333z" />
<glyph unicode="&#xe631;" glyph-name="grade" d="M512 201.814l263.68-159.147-69.76 299.947 232.747 201.6-306.773 26.453-119.893 282.667-119.893-282.667-306.773-26.453 232.747-201.6-69.76-299.947z" />
<glyph unicode="&#xe632;" glyph-name="group-work" d="M512 853.334c-235.733 0-426.667-190.933-426.667-426.667 0-235.52 190.933-426.667 426.667-426.667s426.667 191.147 426.667 426.667c0 235.733-190.933 426.667-426.667 426.667zM341.333 192c-58.88 0-106.667 47.787-106.667 106.667s47.787 106.667 106.667 106.667 106.667-47.787 106.667-106.667-47.787-106.667-106.667-106.667zM405.333 597.334c0 58.88 47.787 106.667 106.667 106.667s106.667-47.787 106.667-106.667-47.787-106.667-106.667-106.667-106.667 47.787-106.667 106.667zM682.667 192c-58.88 0-106.667 47.787-106.667 106.667s47.787 106.667 106.667 106.667 106.667-47.787 106.667-106.667-47.787-106.667-106.667-106.667z" />
<glyph unicode="&#xe633;" glyph-name="help" d="M512 853.334c-235.733 0-426.667-190.933-426.667-426.667s190.933-426.667 426.667-426.667 426.667 190.933 426.667 426.667-190.933 426.667-426.667 426.667zM554.667 128h-85.333v85.333h85.333v-85.333zM642.773 458.454l-38.187-39.253c-30.72-30.72-49.92-56.533-49.92-120.533h-85.333v21.333c0 47.147 19.2 89.813 49.92 120.747l53.12 53.76c15.36 15.36 24.96 36.693 24.96 60.16 0 47.147-38.187 85.333-85.333 85.333s-85.333-38.187-85.333-85.333h-85.333c0 94.293 76.373 170.667 170.667 170.667s170.667-76.373 170.667-170.667c0-37.547-15.147-71.467-39.893-96.213z" />
<glyph unicode="&#xe634;" glyph-name="highlight-remove" d="M622.293 597.334l-110.293-110.293-110.293 110.293-60.373-60.373 110.293-110.293-110.293-110.293 60.373-60.373 110.293 110.293 110.293-110.293 60.373 60.373-110.293 110.293 110.293 110.293-60.373 60.373zM512 853.334c-235.733 0-426.667-190.933-426.667-426.667s190.933-426.667 426.667-426.667 426.667 190.933 426.667 426.667-190.933 426.667-426.667 426.667zM512 85.334c-188.16 0-341.333 153.173-341.333 341.333s153.173 341.333 341.333 341.333 341.333-153.173 341.333-341.333-153.173-341.333-341.333-341.333z" />
<glyph unicode="&#xe635;" glyph-name="history" d="M554.453 810.667c-212.267 0-383.787-171.947-383.787-384h-128l166.187-166.187 2.987-6.187 172.16 172.373h-128c0 164.907 133.76 298.667 298.667 298.667s298.667-133.76 298.667-298.667-133.76-298.667-298.667-298.667c-82.56 0-157.013 33.707-210.987 87.68l-60.373-60.373c69.333-69.547 165.12-112.64 271.147-112.64 212.267 0 384.213 171.947 384.213 384s-171.947 384-384.213 384zM512 597.334v-213.333l182.613-108.373 30.72 51.84-149.333 88.533v181.333h-64z" />
<glyph unicode="&#xe636;" glyph-name="home" d="M426.667 85.334v256h170.667v-256h213.333v341.333h128l-426.667 384-426.667-384h128v-341.333z" />
<glyph unicode="&#xe637;" glyph-name="https" d="M768 597.334h-42.667v85.333c0 117.76-95.573 213.333-213.333 213.333s-213.333-95.573-213.333-213.333v-85.333h-42.667c-47.147 0-85.333-38.187-85.333-85.333v-426.667c0-47.147 38.187-85.333 85.333-85.333h512c47.147 0 85.333 38.187 85.333 85.333v426.667c0 47.147-38.187 85.333-85.333 85.333zM512 213.334c-47.147 0-85.333 38.187-85.333 85.333s38.187 85.333 85.333 85.333 85.333-38.187 85.333-85.333-38.187-85.333-85.333-85.333zM644.267 597.334h-264.533v85.333c0 72.96 59.307 132.267 132.267 132.267s132.267-59.307 132.267-132.267v-85.333z" />
<glyph unicode="&#xe638;" glyph-name="info" d="M512 853.334c-235.733 0-426.667-190.933-426.667-426.667s190.933-426.667 426.667-426.667 426.667 190.933 426.667 426.667-190.933 426.667-426.667 426.667zM554.667 213.334h-85.333v256h85.333v-256zM554.667 554.667h-85.333v85.333h85.333v-85.333z" />
<glyph unicode="&#xe639;" glyph-name="info-outline" d="M469.333 213.334h85.333v256h-85.333v-256zM512 853.334c-235.733 0-426.667-190.933-426.667-426.667s190.933-426.667 426.667-426.667 426.667 190.933 426.667 426.667-190.933 426.667-426.667 426.667zM512 85.334c-188.16 0-341.333 153.173-341.333 341.333s153.173 341.333 341.333 341.333 341.333-153.173 341.333-341.333-153.173-341.333-341.333-341.333zM469.333 554.667h85.333v85.333h-85.333v-85.333z" />
<glyph unicode="&#xe63a;" glyph-name="input" d="M896 810.24h-768c-47.147 0-85.333-38.187-85.333-85.333v-170.24h85.333v171.093h768v-598.613h-768v171.52h-85.333v-171.093c0-47.147 38.187-84.48 85.333-84.48h768c47.147 0 85.333 37.547 85.333 84.48v597.333c0 47.147-38.187 85.333-85.333 85.333zM469.333 256l170.667 170.667-170.667 170.667v-128h-426.667v-85.333h426.667v-128z" />
<glyph unicode="&#xe63b;" glyph-name="invert-colors" d="M753.28 600.32l-241.28 241.493-241.28-241.493c-133.333-133.333-133.333-349.44 0-482.773 66.56-66.56 154.027-100.053 241.28-100.053s174.72 33.28 241.28 100.053c133.333 133.333 133.333 349.44 0 482.773zM512 103.040c-68.48 0-132.693 26.667-180.907 75.093-48.427 48.213-75.093 112.427-75.093 180.907s26.667 132.693 75.093 181.12l180.907 180.907v-618.027z" />
<glyph unicode="&#xe63c;" glyph-name="label" d="M752.427 689.28c-15.573 21.76-40.96 36.053-69.76 36.053l-469.333-0.427c-47.147 0-85.333-37.76-85.333-84.907v-426.667c0-47.147 38.187-84.907 85.333-84.907l469.333-0.427c28.8 0 54.187 14.293 69.76 36.053l186.24 262.613-186.24 262.613z" />
<glyph unicode="&#xe63d;" glyph-name="label-outline" d="M752.427 689.28c-15.573 21.76-40.96 36.053-69.76 36.053l-469.333-0.427c-47.147 0-85.333-37.76-85.333-84.907v-426.667c0-47.147 38.187-84.907 85.333-84.907l469.333-0.427c28.8 0 54.187 14.293 69.76 36.053l186.24 262.613-186.24 262.613zM682.667 213.334h-469.333v426.667h469.333l151.253-213.333-151.253-213.333z" />
<glyph unicode="&#xe63e;" glyph-name="language" d="M511.787 853.334c-235.733 0-426.453-190.933-426.453-426.667s190.72-426.667 426.453-426.667c235.733 0 426.88 190.933 426.88 426.667s-191.147 426.667-426.88 426.667zM807.253 597.334h-125.867c-13.867 53.333-33.28 104.533-58.88 151.893 78.507-26.88 143.787-81.28 184.747-151.893zM512 766.507c35.627-51.2 63.36-108.16 81.493-169.173h-162.987c18.133 61.013 45.867 117.973 81.493 169.173zM181.76 341.334c-7.040 27.307-11.093 55.893-11.093 85.333s4.053 58.027 11.093 85.333h144c-3.413-27.947-5.76-56.32-5.76-85.333s2.347-57.387 5.973-85.333h-144.213zM216.533 256h125.867c13.867-53.333 33.28-104.533 58.88-152.107-78.507 26.88-143.787 81.493-184.747 152.107zM342.4 597.334h-125.867c40.96 70.613 106.24 125.227 184.747 152.107-25.6-47.573-45.013-98.773-58.88-152.107zM512 86.827c-35.413 51.2-63.147 108.16-81.493 169.173h162.987c-18.347-61.013-46.080-117.973-81.493-169.173zM611.84 341.334h-199.68c-4.053 27.947-6.827 56.32-6.827 85.333s2.773 57.387 6.827 85.333h199.68c4.053-27.947 6.827-56.32 6.827-85.333s-2.773-57.387-6.827-85.333zM622.72 104.107c25.6 47.573 45.013 98.56 58.88 151.893h125.867c-41.173-70.613-106.453-125.013-184.747-151.893zM698.027 341.334c3.413 27.947 5.973 56.32 5.973 85.333s-2.347 57.387-5.973 85.333h144c7.040-27.307 11.307-55.893 11.307-85.333s-4.053-58.027-11.307-85.333h-144z" />
<glyph unicode="&#xe63f;" glyph-name="launch" d="M810.667 128h-597.333v597.333h298.667v85.333h-298.667c-47.147 0-85.333-38.187-85.333-85.333v-597.333c0-47.147 38.187-85.333 85.333-85.333h597.333c47.147 0 85.333 38.187 85.333 85.333v298.667h-85.333v-298.667zM597.333 810.667v-85.333h152.96l-419.413-419.413 60.373-60.373 419.413 419.413v-152.96h85.333v298.667h-298.667z" />
<glyph unicode="&#xe640;" glyph-name="list" d="M128 384h85.333v85.333h-85.333v-85.333zM128 213.334h85.333v85.333h-85.333v-85.333zM128 554.667h85.333v85.333h-85.333v-85.333zM298.667 384h597.333v85.333h-597.333v-85.333zM298.667 213.334h597.333v85.333h-597.333v-85.333zM298.667 640v-85.333h597.333v85.333h-597.333z" />
<glyph unicode="&#xe641;" glyph-name="lock" d="M768 597.334h-42.667v85.333c0 117.76-95.573 213.333-213.333 213.333s-213.333-95.573-213.333-213.333v-85.333h-42.667c-47.147 0-85.333-38.187-85.333-85.333v-426.667c0-47.147 38.187-85.333 85.333-85.333h512c47.147 0 85.333 38.187 85.333 85.333v426.667c0 47.147-38.187 85.333-85.333 85.333zM512 213.334c-47.147 0-85.333 38.187-85.333 85.333s38.187 85.333 85.333 85.333 85.333-38.187 85.333-85.333-38.187-85.333-85.333-85.333zM644.267 597.334h-264.533v85.333c0 72.96 59.307 132.267 132.267 132.267s132.267-59.307 132.267-132.267v-85.333z" />
<glyph unicode="&#xe642;" glyph-name="lock-open" d="M512 213.334c47.147 0 85.333 38.187 85.333 85.333s-38.187 85.333-85.333 85.333-85.333-38.187-85.333-85.333 38.187-85.333 85.333-85.333zM768 597.334h-42.667v85.333c0 117.76-95.573 213.333-213.333 213.333s-213.333-95.573-213.333-213.333h81.067c0 72.96 59.307 132.267 132.267 132.267s132.267-59.307 132.267-132.267v-85.333h-388.267c-47.147 0-85.333-38.187-85.333-85.333v-426.667c0-47.147 38.187-85.333 85.333-85.333h512c47.147 0 85.333 38.187 85.333 85.333v426.667c0 47.147-38.187 85.333-85.333 85.333zM768 85.334h-512v426.667h512v-426.667z" />
<glyph unicode="&#xe643;" glyph-name="lock-outline" d="M768 597.334h-42.667v85.333c0 117.76-95.573 213.333-213.333 213.333s-213.333-95.573-213.333-213.333v-85.333h-42.667c-47.147 0-85.333-38.187-85.333-85.333v-426.667c0-47.147 38.187-85.333 85.333-85.333h512c47.147 0 85.333 38.187 85.333 85.333v426.667c0 47.147-38.187 85.333-85.333 85.333zM512 814.934c72.96 0 132.267-59.307 132.267-132.267v-85.333h-260.267v85.333h-4.267c0 72.96 59.307 132.267 132.267 132.267zM768 85.334h-512v426.667h512v-426.667zM512 213.334c47.147 0 85.333 38.187 85.333 85.333s-38.187 85.333-85.333 85.333-85.333-38.187-85.333-85.333 38.187-85.333 85.333-85.333z" />
<glyph unicode="&#xe644;" glyph-name="loyalty" d="M913.493 444.587l-383.787 383.787c-15.36 15.36-36.693 24.96-60.373 24.96h-298.667c-47.147 0-85.333-38.187-85.333-85.333v-298.667c0-23.68 9.6-45.013 25.173-60.373l384-384c15.36-15.36 36.693-24.96 60.16-24.96 23.68 0 45.013 9.6 60.373 24.96l298.667 298.667c15.36 15.573 24.96 36.907 24.96 60.373 0 23.68-9.6 45.013-25.173 60.587zM234.667 640c-35.413 0-64 28.587-64 64s28.587 64 64 64 64-28.587 64-64-28.587-64-64-64zM736.853 287.147l-182.187-182.187-182.187 182.187c-19.2 19.413-31.147 46.080-31.147 75.52 0 58.88 47.787 106.667 106.667 106.667 29.44 0 56.32-11.947 75.52-31.36l31.147-31.147 31.147 31.147c19.413 19.413 46.080 31.36 75.52 31.36 58.88 0 106.667-47.787 106.667-106.667 0-29.44-11.947-56.107-31.147-75.52z" />
<glyph unicode="&#xe645;" glyph-name="markunread-mailbox" d="M853.333 682.667h-426.667v-256h-85.333v341.333h256v170.667h-341.333v-256h-85.333c-46.933 0-85.333-38.4-85.333-85.333v-512c0-46.933 38.4-85.333 85.333-85.333h682.667c46.933 0 85.333 38.4 85.333 85.333v512c0 46.933-38.4 85.333-85.333 85.333z" />
<glyph unicode="&#xe646;" glyph-name="note-add" d="M597.333 853.334h-341.333c-47.147 0-84.907-38.187-84.907-85.333l-0.427-682.667c0-47.147 37.76-85.333 84.907-85.333h512.427c47.147 0 85.333 38.187 85.333 85.333v512l-256 256zM682.667 256h-128v-128h-85.333v128h-128v85.333h128v128h85.333v-128h128v-85.333zM554.667 554.667v234.667l234.667-234.667h-234.667z" />
<glyph unicode="&#xe647;" glyph-name="open-in-browser" d="M810.667 768h-597.333c-47.147 0-85.333-38.187-85.333-85.333v-512c0-47.147 38.187-85.333 85.333-85.333h170.667v85.333h-170.667v426.667h597.333v-426.667h-170.667v-85.333h170.667c47.147 0 85.333 38.187 85.333 85.333v512c0 47.147-38.187 85.333-85.333 85.333zM512 512l-170.667-170.667h128v-256h85.333v256h128l-170.667 170.667z" />
<glyph unicode="&#xe648;" glyph-name="open-in-new" d="M810.667 128h-597.333v597.333h298.667v85.333h-298.667c-47.147 0-85.333-38.187-85.333-85.333v-597.333c0-47.147 38.187-85.333 85.333-85.333h597.333c47.147 0 85.333 38.187 85.333 85.333v298.667h-85.333v-298.667zM597.333 810.667v-85.333h152.96l-419.413-419.413 60.373-60.373 419.413 419.413v-152.96h85.333v298.667h-298.667z" />
<glyph unicode="&#xe649;" glyph-name="open-with" d="M426.667 554.667h170.667v128h128l-213.333 213.333-213.333-213.333h128v-128zM384 512h-128v128l-213.333-213.333 213.333-213.333v128h128v170.667zM981.333 426.667l-213.333 213.333v-128h-128v-170.667h128v-128l213.333 213.333zM597.333 298.667h-170.667v-128h-128l213.333-213.333 213.333 213.333h-128v128z" />
<glyph unicode="&#xe64a;" glyph-name="pageview" d="M469.333 597.334c-70.613 0-128-57.387-128-128s57.387-128 128-128 128 57.387 128 128-57.387 128-128 128zM810.667 810.667h-597.333c-47.147 0-85.333-38.187-85.333-85.333v-597.333c0-47.147 38.187-85.333 85.333-85.333h597.333c47.147 0 85.333 38.187 85.333 85.333v597.333c0 47.147-38.187 85.333-85.333 85.333zM750.293 128l-163.413 163.413c-33.707-22.187-74.027-35.413-117.547-35.413-117.76 0-213.333 95.573-213.333 213.333s95.573 213.333 213.333 213.333 213.333-95.573 213.333-213.333c0-43.52-13.227-83.84-35.413-117.547l163.413-163.413-60.373-60.373z" />
<glyph unicode="&#xe64b;" glyph-name="payment" d="M853.333 768h-682.667c-47.147 0-84.907-38.187-84.907-85.333l-0.427-512c0-47.147 38.187-85.333 85.333-85.333h682.667c47.147 0 85.333 38.187 85.333 85.333v512c0 47.147-38.187 85.333-85.333 85.333zM853.333 170.667h-682.667v256h682.667v-256zM853.333 597.334h-682.667v85.333h682.667v-85.333z" />
<glyph unicode="&#xe64c;" glyph-name="perm-camera-m" d="M853.333 725.334h-135.253l-78.080 85.333h-256l-78.080-85.333h-135.253c-47.147 0-85.333-38.187-85.333-85.333v-512c0-47.147 38.187-85.333 85.333-85.333h298.667v89.173c-120.96 20.48-213.333 125.653-213.333 252.16h85.333c0-94.080 76.587-170.667 170.667-170.667s170.667 76.587 170.667 170.667h85.333c0-126.507-92.373-231.68-213.333-252.16v-89.173h298.667c47.147 0 85.333 38.187 85.333 85.333v512c0 47.147-38.187 85.333-85.333 85.333zM597.333 384c0-47.147-38.187-85.333-85.333-85.333s-85.333 38.187-85.333 85.333v170.667c0 47.147 38.187 85.333 85.333 85.333s85.333-38.187 85.333-85.333v-170.667z" />
<glyph unicode="&#xe64d;" glyph-name="perm-contact-cal" d="M810.667 810.667h-42.667v85.333h-85.333v-85.333h-341.333v85.333h-85.333v-85.333h-42.667c-47.147 0-85.333-38.187-85.333-85.333v-597.333c0-47.147 38.187-85.333 85.333-85.333h597.333c47.147 0 85.333 38.187 85.333 85.333v597.333c0 47.147-38.187 85.333-85.333 85.333zM512 682.667c70.613 0 128-57.387 128-128 0-70.827-57.387-128-128-128s-128 57.173-128 128c0 70.613 57.387 128 128 128zM768 170.667h-512v42.667c0 85.333 170.667 132.267 256 132.267s256-46.933 256-132.267v-42.667z" />
<glyph unicode="&#xe650;" glyph-name="perm-identity" d="M512 686.934c49.493 0 89.6-40.107 89.6-89.6s-40.107-89.6-89.6-89.6-89.6 40.107-89.6 89.6 40.107 89.6 89.6 89.6zM512 302.934c126.933 0 260.267-62.080 260.267-89.6v-46.933h-520.533v46.933c0 27.52 133.333 89.6 260.267 89.6zM512 768c-94.293 0-170.667-76.373-170.667-170.667 0-94.080 76.373-170.667 170.667-170.667s170.667 76.587 170.667 170.667c0 94.293-76.373 170.667-170.667 170.667zM512 384c-113.707 0-341.333-56.96-341.333-170.667v-128h682.667v128c0 113.707-227.627 170.667-341.333 170.667z" />
<glyph unicode="&#xe651;" glyph-name="perm-media" d="M85.333 682.667h-85.333v-213.333h0.427l-0.427-384c0-47.147 38.187-85.333 85.333-85.333h768v85.333h-768v597.333zM938.667 768h-341.333l-85.333 85.333h-256c-47.147 0-84.907-38.187-84.907-85.333l-0.427-512c0-47.147 38.187-85.333 85.333-85.333h682.667c47.147 0 85.333 38.187 85.333 85.333v426.667c0 47.147-38.187 85.333-85.333 85.333zM298.667 298.667l192 256 149.333-192.213 106.667 128.213 149.333-192h-597.333z" />
<glyph unicode="&#xe654;" glyph-name="picture-in-picture" d="M810.667 640h-341.333v-256h341.333v256zM896 810.667h-768c-47.147 0-85.333-38.187-85.333-85.333v-597.333c0-47.147 38.187-84.48 85.333-84.48h768c47.147 0 85.333 37.547 85.333 84.48v597.333c0 47.147-38.187 85.333-85.333 85.333zM896 127.36h-768v598.613h768v-598.613z" />
<glyph unicode="&#xe656;" glyph-name="print" d="M810.667 597.334h-597.333c-70.613 0-128-57.387-128-128v-256h170.667v-170.667h512v170.667h170.667v256c0 70.613-57.387 128-128 128zM682.667 128h-341.333v213.333h341.333v-213.333zM810.667 426.667c-23.68 0-42.667 18.987-42.667 42.667s18.987 42.667 42.667 42.667c23.68 0 42.667-18.987 42.667-42.667s-18.987-42.667-42.667-42.667zM768 810.667h-512v-170.667h512v170.667z" />
<glyph unicode="&#xe657;" glyph-name="query-builder" d="M511.787 853.334c-235.733 0-426.453-190.933-426.453-426.667s190.72-426.667 426.453-426.667c235.733 0 426.88 190.933 426.88 426.667s-191.147 426.667-426.88 426.667zM512 85.334c-188.587 0-341.333 152.747-341.333 341.333s152.747 341.333 341.333 341.333 341.333-152.747 341.333-341.333-152.747-341.333-341.333-341.333zM533.333 640h-64v-256l223.787-134.4 32.213 52.48-192 113.92z" />
<glyph unicode="&#xe658;" glyph-name="question-answer" d="M896 682.667h-85.333v-384h-554.667v-85.333c0-23.467 19.2-42.667 42.667-42.667h469.333l170.667-170.667v640c0 23.467-19.2 42.667-42.667 42.667zM725.333 426.667v384c0 23.467-19.2 42.667-42.667 42.667h-554.667c-23.467 0-42.667-19.2-42.667-42.667v-597.333l170.667 170.667h426.667c23.467 0 42.667 19.2 42.667 42.667z" />
<glyph unicode="&#xe659;" glyph-name="receipt" d="M768 213.334h-512v85.333h512v-85.333zM768 384h-512v85.333h512v-85.333zM768 554.667h-512v85.333h512v-85.333zM128-0l64 64 64-64 64 64 64-64 64 64 64-64 64 64 64-64 64 64 64-64 64 64 64-64v853.333l-64-64-64 64-64-64-64 64-64-64-64 64-64-64-64 64-64-64-64 64-64-64-64 64v-853.333z" />
<glyph unicode="&#xe65b;" glyph-name="reorder" d="M128 298.667h768v85.333h-768v-85.333zM128 128h768v85.333h-768v-85.333zM128 469.334h768v85.333h-768v-85.333zM128 725.334v-85.333h768v85.333h-768z" />
<glyph unicode="&#xe65c;" glyph-name="report-problem" d="M42.667 42.667h938.667l-469.333 810.667-469.333-810.667zM554.667 170.667h-85.333v85.333h85.333v-85.333zM554.667 341.334h-85.333v170.667h85.333v-170.667z" />
<glyph unicode="&#xe65d;" glyph-name="restore" d="M554.453 810.667c-212.267 0-383.787-171.947-383.787-384h-128l166.187-166.187 2.987-6.187 172.16 172.373h-128c0 164.907 133.76 298.667 298.667 298.667s298.667-133.76 298.667-298.667-133.76-298.667-298.667-298.667c-82.56 0-157.013 33.707-210.987 87.68l-60.373-60.373c69.333-69.547 165.12-112.64 271.147-112.64 212.267 0 384.213 171.947 384.213 384s-171.947 384-384.213 384zM512 597.334v-213.333l182.613-108.373 30.72 51.84-149.333 88.533v181.333h-64z" />
<glyph unicode="&#xe65e;" glyph-name="room" d="M512 853.334c-164.907 0-298.667-133.76-298.667-298.667 0-224 298.667-554.667 298.667-554.667s298.667 330.667 298.667 554.667c0 164.907-133.76 298.667-298.667 298.667zM512 448c-58.88 0-106.667 47.787-106.667 106.667s47.787 106.667 106.667 106.667 106.667-47.787 106.667-106.667-47.787-106.667-106.667-106.667z" />
<glyph unicode="&#xe65f;" glyph-name="schedule" d="M511.787 853.334c-235.733 0-426.453-190.933-426.453-426.667s190.72-426.667 426.453-426.667c235.733 0 426.88 190.933 426.88 426.667s-191.147 426.667-426.88 426.667zM512 85.334c-188.587 0-341.333 152.747-341.333 341.333s152.747 341.333 341.333 341.333 341.333-152.747 341.333-341.333-152.747-341.333-341.333-341.333zM533.333 640h-64v-256l223.787-134.4 32.213 52.48-192 113.92z" />
<glyph unicode="&#xe660;" glyph-name="search" d="M661.333 341.334h-33.92l-11.733 11.733c41.813 48.427 66.987 111.36 66.987 180.267 0 153.173-124.16 277.333-277.333 277.333s-277.333-124.16-277.333-277.333 124.16-277.333 277.333-277.333c68.907 0 131.84 25.173 180.267 66.773l11.733-11.733v-33.707l213.333-212.907 63.573 63.573-212.907 213.333zM405.333 341.334c-106.027 0-192 85.973-192 192s85.973 192 192 192 192-85.973 192-192-85.973-192-192-192z" />
<glyph unicode="&#xe661;" glyph-name="settings" d="M829.013 385.067c1.707 13.653 2.987 27.52 2.987 41.6s-1.28 27.947-2.987 41.6l90.24 70.613c8.107 6.4 10.453 17.92 5.12 27.307l-85.333 147.84c-5.333 9.173-16.427 13.013-26.027 9.173l-106.24-42.88c-21.973 16.853-46.080 31.147-72.107 42.027l-16 113.067c-1.92 10.027-10.667 17.92-21.333 17.92h-170.667c-10.667 0-19.413-7.893-21.12-17.92l-16-113.067c-26.027-10.88-50.133-24.96-72.107-42.027l-106.24 42.88c-9.6 3.627-20.693 0-26.027-9.173l-85.333-147.84c-5.333-9.173-2.987-20.693 5.12-27.307l90.027-70.613c-1.707-13.653-2.987-27.52-2.987-41.6s1.28-27.947 2.987-41.6l-90.027-70.613c-8.107-6.4-10.453-17.92-5.12-27.307l85.333-147.84c5.333-9.173 16.427-13.013 26.027-9.173l106.24 42.88c21.973-16.853 46.080-31.147 72.107-42.027l16-113.067c1.707-10.027 10.453-17.92 21.12-17.92h170.667c10.667 0 19.413 7.893 21.12 17.92l16 113.067c26.027 10.88 50.133 24.96 72.107 42.027l106.24-42.88c9.6-3.627 20.693 0 26.027 9.173l85.333 147.84c5.333 9.173 2.987 20.693-5.12 27.307l-90.027 70.613zM512 277.334c-82.56 0-149.333 66.773-149.333 149.333s66.773 149.333 149.333 149.333 149.333-66.773 149.333-149.333-66.773-149.333-149.333-149.333z" />
<glyph unicode="&#xe662;" glyph-name="settings-applications" d="M512 512c-47.147 0-85.333-38.187-85.333-85.333s38.187-85.333 85.333-85.333 85.333 38.187 85.333 85.333-38.187 85.333-85.333 85.333zM810.667 810.667h-597.333c-47.147 0-85.333-38.187-85.333-85.333v-597.333c0-47.147 38.187-85.333 85.333-85.333h597.333c47.147 0 85.333 38.187 85.333 85.333v597.333c0 47.147-38.187 85.333-85.333 85.333zM736 426.667c0-9.813-0.853-19.627-2.133-29.227l63.147-49.493c5.547-4.48 7.253-12.587 3.413-18.987l-59.733-103.467c-3.627-6.4-11.52-8.96-18.347-6.4l-74.453 30.080c-15.36-11.947-32.213-21.76-50.56-29.44l-11.093-79.147c-0.853-7.040-7.040-12.587-14.507-12.587h-119.467c-7.467 0-13.653 5.547-14.72 12.587l-11.093 79.147c-18.133 7.467-34.987 17.493-50.56 29.44l-74.24-29.867c-6.827-2.56-14.507 0-18.347 6.4l-59.733 103.467c-3.84 6.4-2.133 14.507 3.413 18.987l63.147 49.28c-1.28 9.6-2.133 19.2-2.133 29.227 0 9.813 0.853 19.627 2.133 29.227l-63.147 49.28c-5.547 4.48-7.253 12.587-3.413 18.987l59.733 103.467c3.84 6.4 11.52 8.96 18.347 6.4l74.24-29.867c15.36 11.733 32.213 21.76 50.56 29.44l11.093 79.147c1.067 7.040 7.253 12.587 14.72 12.587h119.467c7.467 0 13.653-5.547 14.72-12.587l11.093-79.147c18.133-7.467 34.987-17.493 50.56-29.44l74.24 29.867c6.827 2.56 14.507 0 18.347-6.4l59.733-103.467c3.84-6.4 2.133-14.507-3.413-18.987l-63.147-49.493c1.28-9.387 2.133-19.2 2.133-29.013z" />
<glyph unicode="&#xe663;" glyph-name="settings-backup-restore" d="M597.333 426.667c0 47.147-38.187 85.333-85.333 85.333s-85.333-38.187-85.333-85.333 38.187-85.333 85.333-85.333 85.333 38.187 85.333 85.333zM512 810.667c-212.053 0-384-171.947-384-384h-128l170.667-170.667 170.667 170.667h-128c0 164.907 133.76 298.667 298.667 298.667s298.667-133.76 298.667-298.667-133.76-298.667-298.667-298.667c-64.64 0-124.16 20.693-173.227 55.68l-60.373-61.227c64.853-49.92 145.707-79.787 233.6-79.787 212.053 0 384 171.947 384 384s-171.947 384-384 384z" />
<glyph unicode="&#xe664;" glyph-name="settings-bluetooth" d="M469.333-85.333h85.333v85.333h-85.333v-85.333zM298.667-85.333h85.333v85.333h-85.333v-85.333zM640-85.333h85.333v85.333h-85.333v-85.333zM755.413 695.254l-243.413 243.413h-42.667v-323.627l-195.627 195.627-60.373-60.373 238.293-238.293-238.293-238.293 60.373-60.373 195.627 195.627v-323.627h42.667l243.413 243.413-183.040 183.253 183.040 183.253zM554.667 775.254l80.213-80.213-80.213-80v160.213zM634.88 328.747l-80.213-80v160.213l80.213-80.213z" />
<glyph unicode="&#xe665;" glyph-name="settings-cell" d="M298.667-85.333h85.333v85.333h-85.333v-85.333zM469.333-85.333h85.333v85.333h-85.333v-85.333zM640-85.333h85.333v85.333h-85.333v-85.333zM682.667 938.24l-341.333 0.427c-47.147 0-85.333-38.187-85.333-85.333v-682.667c0-47.147 38.187-85.333 85.333-85.333h341.333c47.147 0 85.333 38.187 85.333 85.333v682.667c0 47.147-38.187 84.907-85.333 84.907zM682.667 256h-341.333v512h341.333v-512z" />
<glyph unicode="&#xe667;" glyph-name="settings-ethernet" d="M331.52 650.24l-65.707 54.4-230.827-277.973 230.827-278.187 65.707 54.4-185.6 223.787 185.6 223.573zM298.667 384h85.333v85.333h-85.333v-85.333zM725.333 469.334h-85.333v-85.333h85.333v85.333zM469.333 384h85.333v85.333h-85.333v-85.333zM758.187 704.854l-65.707-54.4 185.6-223.787-185.6-223.573 65.707-54.4 230.827 277.973-230.827 278.187z" />
<glyph unicode="&#xe668;" glyph-name="settings-input-antenna" d="M512 725.334c-164.907 0-298.667-133.76-298.667-298.667h85.333c0 117.76 95.573 213.333 213.333 213.333s213.333-95.573 213.333-213.333h85.333c0 164.907-133.76 298.667-298.667 298.667zM554.667 328.96c37.547 16.427 64 53.973 64 97.707 0 58.88-47.787 106.667-106.667 106.667s-106.667-47.787-106.667-106.667c0-43.733 26.453-81.28 64-97.707v-140.587l-145.707-145.707 60.373-60.373 128 128 128-128 60.373 60.373-145.707 145.707v140.587zM512 896c-259.2 0-469.333-210.133-469.333-469.333h85.333c0 212.053 171.947 384 384 384s384-171.947 384-384h85.333c0 259.2-210.133 469.333-469.333 469.333z" />
<glyph unicode="&#xe669;" glyph-name="settings-input-component" d="M213.333 853.334c0 23.467-18.987 42.667-42.667 42.667s-42.667-19.2-42.667-42.667v-170.667h-85.333v-256h256v256h-85.333v170.667zM384 256c0-55.68 35.84-102.613 85.333-120.107v-178.56h85.333v178.56c49.493 17.707 85.333 64.427 85.333 120.107v85.333h-256v-85.333zM42.667 256c0-55.68 35.84-102.613 85.333-120.107v-178.56h85.333v178.56c49.493 17.707 85.333 64.427 85.333 120.107v85.333h-256v-85.333zM896 682.667v170.667c0 23.467-18.987 42.667-42.667 42.667s-42.667-19.2-42.667-42.667v-170.667h-85.333v-256h256v256h-85.333zM554.667 853.334c0 23.467-18.987 42.667-42.667 42.667s-42.667-19.2-42.667-42.667v-170.667h-85.333v-256h256v256h-85.333v170.667zM725.333 256c0-55.68 35.84-102.613 85.333-120.107v-178.56h85.333v178.56c49.493 17.707 85.333 64.427 85.333 120.107v85.333h-256v-85.333z" />
<glyph unicode="&#xe66d;" glyph-name="settings-overscan" d="M512.213 704l-85.547-106.667h170.667l-85.12 106.667zM768 512v-170.667l106.667 85.12-106.667 85.547zM256 512l-106.667-85.547 106.667-85.12v170.667zM597.333 256h-170.667l85.547-106.667 85.12 106.667zM896 810.667h-768c-47.147 0-85.333-38.187-85.333-85.333v-597.333c0-47.147 38.187-85.333 85.333-85.333h768c47.147 0 85.333 38.187 85.333 85.333v597.333c0 47.147-38.187 85.333-85.333 85.333zM896 127.36h-768v598.613h768v-598.613z" />
<glyph unicode="&#xe66f;" glyph-name="settings-power" d="M298.667-85.333h85.333v85.333h-85.333v-85.333zM469.333-85.333h85.333v85.333h-85.333v-85.333zM554.667 853.334h-85.333v-426.667h85.333v426.667zM706.773 749.44l-61.653-61.653c73.6-45.013 122.88-125.867 122.88-218.453 0-141.44-114.56-256-256-256s-256 114.56-256 256c0 92.587 49.28 173.44 122.88 218.453l-61.653 61.653c-88.533-61.653-146.56-164.053-146.56-280.107 0-188.587 152.747-341.333 341.333-341.333s341.333 152.747 341.333 341.333c0 116.053-58.027 218.453-146.56 280.107zM640-85.333h85.333v85.333h-85.333v-85.333z" />
<glyph unicode="&#xe675;" glyph-name="shopping-cart" d="M298.667 170.667c-47.147 0-84.907-38.187-84.907-85.333s37.76-85.333 84.907-85.333 85.333 38.187 85.333 85.333-38.187 85.333-85.333 85.333zM42.667 853.334v-85.333h85.333l153.387-323.627-57.6-104.533c-6.613-12.373-10.453-26.24-10.453-41.173 0-47.147 38.187-85.333 85.333-85.333h512v85.333h-493.867c-5.973 0-10.667 4.693-10.667 10.667 0 1.92 0.427 3.627 1.28 5.12l38.187 69.547h317.867c32 0 59.947 17.707 74.667 43.947l152.533 276.907c3.413 5.973 5.333 13.013 5.333 20.48 0 23.68-19.2 42.667-42.667 42.667h-630.827l-40.533 85.333h-139.307zM725.333 170.667c-47.147 0-84.907-38.187-84.907-85.333s37.76-85.333 84.907-85.333 85.333 38.187 85.333 85.333-38.187 85.333-85.333 85.333z" />
<glyph unicode="&#xe676;" glyph-name="speaker-notes" d="M853.333 853.334h-682.667c-47.147 0-84.907-38.187-84.907-85.333l-0.427-768 170.667 170.667h597.333c47.147 0 85.333 38.187 85.333 85.333v512c0 47.147-38.187 85.333-85.333 85.333zM341.333 341.334h-85.333v85.333h85.333v-85.333zM341.333 469.334h-85.333v85.333h85.333v-85.333zM341.333 597.334h-85.333v85.333h85.333v-85.333zM640 341.334h-213.333v85.333h213.333v-85.333zM768 469.334h-341.333v85.333h341.333v-85.333zM768 597.334h-341.333v85.333h341.333v-85.333z" />
<glyph unicode="&#xe677;" glyph-name="spellcheck" d="M530.987 256h89.173l-217.813 554.667h-79.147l-218.027-554.667h89.173l48 128h240.853l47.787-128zM274.347 469.334l88.32 235.733 88.32-235.733h-176.64zM920.96 444.374l-344.96-344.96-156.587 156.587-60.373-60.373 216.96-216.96 405.333 405.333-60.373 60.373z" />
<glyph unicode="&#xe678;" glyph-name="star-rate" d="M512 328.534l158.293-115.2-60.587 186.027 158.293 112.64h-194.133l-61.867 192-61.867-192h-194.133l158.293-112.64-60.373-186.027z" />
<glyph unicode="&#xe679;" glyph-name="stars" d="M511.787 853.334c-235.733 0-426.453-190.933-426.453-426.667s190.72-426.667 426.453-426.667c235.733 0 426.88 190.933 426.88 426.667s-191.147 426.667-426.88 426.667zM692.48 170.667l-180.48 108.8-180.48-108.8 47.787 205.227-159.147 138.027 209.92 17.92 81.92 193.493 81.92-193.493 209.92-17.92-159.147-138.027 47.787-205.227z" />
<glyph unicode="&#xe67b;" glyph-name="subject" d="M597.333 213.334h-426.667v-85.333h426.667v85.333zM853.333 554.667h-682.667v-85.333h682.667v85.333zM170.667 298.667h682.667v85.333h-682.667v-85.333zM170.667 725.334v-85.333h682.667v85.333h-682.667z" />
<glyph unicode="&#xe67d;" glyph-name="swap-horiz" d="M298.24 469.334l-170.24-170.667 170.24-170.667v128h299.093v85.333h-299.093v128zM896 554.667l-170.24 170.667v-128h-299.093v-85.333h299.093v-128l170.24 170.667z" />
<glyph unicode="&#xe67e;" glyph-name="swap-vert" d="M682.667 212.907v299.093h-85.333v-299.093h-128l170.667-170.24 170.667 170.24h-128zM384 810.667l-170.667-170.24h128v-299.093h85.333v299.093h128l-170.667 170.24z" />
<glyph unicode="&#xe67f;" glyph-name="swap-vert-circle" d="M512 853.334c-235.733 0-426.667-190.933-426.667-426.667s190.933-426.667 426.667-426.667 426.667 190.933 426.667 426.667-190.933 426.667-426.667 426.667zM277.333 554.667l149.333 149.333 149.333-149.333h-106.667v-170.667h-85.333v170.667h-106.667zM746.667 298.667l-149.333-149.333-149.333 149.333h106.667v170.667h85.333v-170.667h106.667z" />
<glyph unicode="&#xe680;" glyph-name="system-update-tv" d="M512 245.334l170.667 170.667h-128v384h-85.333v-384h-128l170.667-170.667zM896 800h-256v-84.693h256v-598.613h-768v598.613h256v84.693h-256c-47.147 0-85.333-38.187-85.333-85.333v-597.333c0-47.147 38.187-85.333 85.333-85.333h768c47.147 0 85.333 38.187 85.333 85.333v597.333c0 47.147-38.187 85.333-85.333 85.333z" />
<glyph unicode="&#xe681;" glyph-name="tab" d="M896 810.667h-768c-47.147 0-85.333-38.187-85.333-85.333v-597.333c0-47.147 38.187-85.333 85.333-85.333h768c47.147 0 85.333 38.187 85.333 85.333v597.333c0 47.147-38.187 85.333-85.333 85.333zM896 128h-768v597.333h426.667v-170.667h341.333v-426.667z" />
<glyph unicode="&#xe682;" glyph-name="tab-unselected" d="M42.667 554.667h85.333v85.333h-85.333v-85.333zM42.667 384h85.333v85.333h-85.333v-85.333zM42.667 725.334h85.333v85.333c-47.147 0-85.333-38.187-85.333-85.333zM384 42.667h85.333v85.333h-85.333v-85.333zM42.667 213.334h85.333v85.333h-85.333v-85.333zM128 42.667v85.333h-85.333c0-47.147 38.187-85.333 85.333-85.333zM896 810.667h-341.333v-256h426.667v170.667c0 47.147-38.187 85.333-85.333 85.333zM896 213.334h85.333v85.333h-85.333v-85.333zM384 725.334h85.333v85.333h-85.333v-85.333zM213.333 42.667h85.333v85.333h-85.333v-85.333zM213.333 725.334h85.333v85.333h-85.333v-85.333zM896 42.667c47.147 0 85.333 38.187 85.333 85.333h-85.333v-85.333zM896 384h85.333v85.333h-85.333v-85.333zM554.667 42.667h85.333v85.333h-85.333v-85.333zM725.333 42.667h85.333v85.333h-85.333v-85.333z" />
<glyph unicode="&#xe683;" glyph-name="theaters" d="M768 810.667v-85.333h-85.333v85.333h-341.333v-85.333h-85.333v85.333h-85.333v-768h85.333v85.333h85.333v-85.333h341.333v85.333h85.333v-85.333h85.333v768h-85.333zM341.333 213.334h-85.333v85.333h85.333v-85.333zM341.333 384h-85.333v85.333h85.333v-85.333zM341.333 554.667h-85.333v85.333h85.333v-85.333zM768 213.334h-85.333v85.333h85.333v-85.333zM768 384h-85.333v85.333h85.333v-85.333zM768 554.667h-85.333v85.333h85.333v-85.333z" />
<glyph unicode="&#xe684;" glyph-name="thumb-down" d="M640 810.667h-384c-35.413 0-65.707-21.547-78.507-52.053l-128.64-300.8c-3.84-9.813-6.187-20.267-6.187-31.147v-81.707l0.427-0.427-0.427-3.2c0-47.147 38.187-85.333 85.333-85.333h269.44l-40.747-194.987c-0.853-4.267-1.493-8.747-1.493-13.44 0-17.707 7.253-33.707 18.773-45.227l45.44-45.013 280.96 280.96c15.36 15.573 24.96 36.907 24.96 60.373v426.667c0 47.147-38.187 85.333-85.333 85.333zM810.667 810.667v-512h170.667v512h-170.667z" />
<glyph unicode="&#xe685;" glyph-name="thumb-up" d="M42.667 42.667h170.667v512h-170.667v-512zM981.333 512c0 47.147-38.187 85.333-85.333 85.333h-269.44l40.747 194.987c0.853 4.267 1.493 8.747 1.493 13.44 0 17.707-7.253 33.707-18.773 45.227l-45.44 45.013-280.96-280.96c-15.36-15.573-24.96-36.907-24.96-60.373v-426.667c0-47.147 38.187-85.333 85.333-85.333h384c35.413 0 65.707 21.547 78.507 52.053l128.64 300.8c3.84 9.813 6.187 20.267 6.187 31.147v81.707l-0.427 0.427 0.427 3.2z" />
<glyph unicode="&#xe686;" glyph-name="thumbs-up-down" d="M512 682.667c0 23.467-19.2 42.667-42.667 42.667h-221.227l28.373 135.467c0.64 3.2 1.067 6.613 1.067 10.027 0 13.227-5.333 25.173-14.080 33.92l-33.92 33.92-210.773-210.773c-11.52-11.52-18.773-27.52-18.773-45.227v-277.333c0-35.413 28.587-64 64-64h288c26.453 0 49.28 16 58.88 39.040l96.64 225.707c2.773 7.253 4.48 14.933 4.48 23.253v53.333zM960 512h-288c-26.453 0-49.28-16-58.88-39.040l-96.64-225.707c-2.773-7.253-4.48-14.933-4.48-23.253v-53.333c0-23.467 19.2-42.667 42.667-42.667h221.227l-28.373-135.467c-0.64-3.2-1.067-6.613-1.067-10.027 0-13.227 5.333-25.173 14.080-33.92l33.92-33.92 210.773 210.773c11.52 11.52 18.773 27.52 18.773 45.227v277.333c0 35.413-28.587 64-64 64z" />
<glyph unicode="&#xe687;" glyph-name="toc" d="M128 554.667h597.333v85.333h-597.333v-85.333zM128 384h597.333v85.333h-597.333v-85.333zM128 213.334h597.333v85.333h-597.333v-85.333zM810.667 213.334h85.333v85.333h-85.333v-85.333zM810.667 640v-85.333h85.333v85.333h-85.333zM810.667 384h85.333v85.333h-85.333v-85.333z" />
<glyph unicode="&#xe688;" glyph-name="today" d="M810.667 810.667h-42.667v85.333h-85.333v-85.333h-341.333v85.333h-85.333v-85.333h-42.667c-47.147 0-84.907-38.187-84.907-85.333l-0.427-597.333c0-47.147 38.187-85.333 85.333-85.333h597.333c47.147 0 85.333 38.187 85.333 85.333v597.333c0 47.147-38.187 85.333-85.333 85.333zM810.667 128h-597.333v469.333h597.333v-469.333zM298.667 512h213.333v-213.333h-213.333z" />
<glyph unicode="&#xe689;" glyph-name="track-changes" d="M813.653 728.32l-60.373-60.373c61.867-61.653 100.053-146.987 100.053-241.28 0-188.587-152.747-341.333-341.333-341.333s-341.333 152.747-341.333 341.333c0 174.080 130.347 317.44 298.667 338.347v-86.187c-120.96-20.267-213.333-125.44-213.333-252.16 0-141.44 114.56-256 256-256s256 114.56 256 256c0 70.613-28.587 134.613-74.88 181.12l-60.373-60.373c30.72-30.933 49.92-73.6 49.92-120.747 0-94.293-76.373-170.667-170.667-170.667s-170.667 76.373-170.667 170.667c0 79.36 54.613 145.707 128 164.693v-91.093c-25.387-14.72-42.667-42.027-42.667-73.6 0-47.147 38.187-85.333 85.333-85.333s85.333 38.187 85.333 85.333c0 31.573-17.28 58.667-42.667 73.6v353.067h-42.667c-235.733 0-426.667-190.933-426.667-426.667 0-235.52 190.933-426.667 426.667-426.667 235.52 0 426.667 191.147 426.667 426.667 0 117.76-47.787 224.427-125.013 301.653z" />
<glyph unicode="&#xe68a;" glyph-name="translate" d="M549.12 295.467l-108.373 107.093 1.28 1.28c74.24 82.773 127.147 177.92 158.293 278.613h125.013v85.547h-298.667v85.333h-85.333v-85.333h-298.667v-84.907h476.587c-28.8-82.347-73.813-160.427-135.253-228.693-39.68 44.16-72.533 92.16-98.56 142.933h-85.333c31.147-69.547 73.813-135.253 127.147-194.56l-216.96-214.4 60.373-60.373 213.333 213.333 132.693-132.693 32.427 86.827zM789.333 512h-85.333l-192-512h85.333l48 128h202.667l48-128h85.333l-192 512zM677.333 213.334l69.333 184.96 69.333-184.96h-138.667z" />
<glyph unicode="&#xe68b;" glyph-name="trending-down" d="M682.667 170.667l97.92 97.92-208.213 208-170.667-170.667-316.373 316.373 60.373 60.373 256-256 170.667 170.667 268.373-268.587 97.92 97.92v-256z" />
<glyph unicode="&#xe68c;" glyph-name="trending-neutral" d="M938.667 426.667l-170.667 170.667v-128h-640v-85.333h640v-128z" />
<glyph unicode="&#xe68d;" glyph-name="trending-up" d="M682.667 682.667l97.92-97.92-208.213-208-170.667 170.667-316.373-316.373 60.373-60.373 256 256 170.667-170.667 268.373 268.587 97.92-97.92v256z" />
<glyph unicode="&#xe68e;" glyph-name="turned-in" d="M725.333 810.667h-426.667c-47.147 0-84.907-38.187-84.907-85.333l-0.427-682.667 298.667 128 298.667-128v682.667c0 47.147-38.187 85.333-85.333 85.333z" />
<glyph unicode="&#xe68f;" glyph-name="turned-in-not" d="M725.333 810.667h-426.667c-47.147 0-84.907-38.187-84.907-85.333l-0.427-682.667 298.667 128 298.667-128v682.667c0 47.147-38.187 85.333-85.333 85.333zM725.333 170.667l-213.333 92.8-213.333-92.8v554.667h426.667v-554.667z" />
<glyph unicode="&#xe690;" glyph-name="verified-user" d="M512 896l-384-170.667v-256c0-237.013 163.627-458.027 384-512 220.373 53.973 384 274.987 384 512v256l-384 170.667zM426.667 213.334l-170.667 170.667 60.373 60.373 110.293-110.293 280.96 280.96 60.373-60.373-341.333-341.333z" />
<glyph unicode="&#xe691;" glyph-name="view-agenda" d="M853.333 384h-725.333c-23.467 0-42.667-19.2-42.667-42.667v-256c0-23.467 19.2-42.667 42.667-42.667h725.333c23.467 0 42.667 19.2 42.667 42.667v256c0 23.467-19.2 42.667-42.667 42.667zM853.333 810.667h-725.333c-23.467 0-42.667-19.2-42.667-42.667v-256c0-23.467 19.2-42.667 42.667-42.667h725.333c23.467 0 42.667 19.2 42.667 42.667v256c0 23.467-19.2 42.667-42.667 42.667z" />
<glyph unicode="&#xe692;" glyph-name="view-array" d="M170.667 170.667h128v554.667h-128v-554.667zM768 725.334v-554.667h128v554.667h-128zM341.333 170.667h384v554.667h-384v-554.667z" />
<glyph unicode="&#xe693;" glyph-name="view-carousel" d="M298.667 128h426.667v640h-426.667v-640zM85.333 213.334h170.667v469.333h-170.667v-469.333zM768 682.667v-469.333h170.667v469.333h-170.667z" />
<glyph unicode="&#xe694;" glyph-name="view-column" d="M426.667 170.667h213.333v554.667h-213.333v-554.667zM170.667 170.667h213.333v554.667h-213.333v-554.667zM682.667 725.334v-554.667h213.333v554.667h-213.333z" />
<glyph unicode="&#xe695;" glyph-name="view-day" d="M85.333 42.667h810.667v128h-810.667v-128zM853.333 597.334h-725.333c-23.467 0-42.667-19.2-42.667-42.667v-256c0-23.467 19.2-42.667 42.667-42.667h725.333c23.467 0 42.667 19.2 42.667 42.667v256c0 23.467-19.2 42.667-42.667 42.667zM85.333 810.667v-128h810.667v128h-810.667z" />
<glyph unicode="&#xe696;" glyph-name="view-headline" d="M170.667 298.667h725.333v85.333h-725.333v-85.333zM170.667 128h725.333v85.333h-725.333v-85.333zM170.667 469.334h725.333v85.333h-725.333v-85.333zM170.667 725.334v-85.333h725.333v85.333h-725.333z" />
<glyph unicode="&#xe697;" glyph-name="view-list" d="M170.667 341.334h170.667v170.667h-170.667v-170.667zM170.667 128h170.667v170.667h-170.667v-170.667zM170.667 554.667h170.667v170.667h-170.667v-170.667zM384 341.334h512v170.667h-512v-170.667zM384 128h512v170.667h-512v-170.667zM384 725.334v-170.667h512v170.667h-512z" />
<glyph unicode="&#xe698;" glyph-name="view-module" d="M170.667 469.334h213.333v256h-213.333v-256zM170.667 170.667h213.333v256h-213.333v-256zM426.667 170.667h213.333v256h-213.333v-256zM682.667 170.667h213.333v256h-213.333v-256zM426.667 469.334h213.333v256h-213.333v-256zM682.667 725.334v-256h213.333v256h-213.333z" />
<glyph unicode="&#xe699;" glyph-name="view-quilt" d="M426.667 170.667h213.333v256h-213.333v-256zM170.667 170.667h213.333v554.667h-213.333v-554.667zM682.667 170.667h213.333v256h-213.333v-256zM426.667 725.334v-256h469.333v256h-469.333z" />
<glyph unicode="&#xe69a;" glyph-name="view-stream" d="M170.667 170.667h725.333v256h-725.333v-256zM170.667 725.334v-256h725.333v256h-725.333z" />
<glyph unicode="&#xe69b;" glyph-name="view-week" d="M256 725.334h-128c-23.467 0-42.667-19.2-42.667-42.667v-512c0-23.467 19.2-42.667 42.667-42.667h128c23.467 0 42.667 19.2 42.667 42.667v512c0 23.467-19.2 42.667-42.667 42.667zM853.333 725.334h-128c-23.467 0-42.667-19.2-42.667-42.667v-512c0-23.467 19.2-42.667 42.667-42.667h128c23.467 0 42.667 19.2 42.667 42.667v512c0 23.467-19.2 42.667-42.667 42.667zM554.667 725.334h-128c-23.467 0-42.667-19.2-42.667-42.667v-512c0-23.467 19.2-42.667 42.667-42.667h128c23.467 0 42.667 19.2 42.667 42.667v512c0 23.467-19.2 42.667-42.667 42.667z" />
<glyph unicode="&#xe69c;" glyph-name="visibility" d="M512 746.667c-213.333 0-395.52-132.693-469.333-320 73.813-187.307 256-320 469.333-320 213.547 0 395.52 132.693 469.333 320-73.813 187.307-255.787 320-469.333 320zM512 213.334c-117.76 0-213.333 95.573-213.333 213.333s95.573 213.333 213.333 213.333 213.333-95.573 213.333-213.333-95.573-213.333-213.333-213.333zM512 554.667c-70.613 0-128-57.387-128-128s57.387-128 128-128 128 57.387 128 128-57.387 128-128 128z" />
<glyph unicode="&#xe69d;" glyph-name="visibility-off" d="M512 640c117.76 0 213.333-95.573 213.333-213.333 0-27.52-5.547-53.76-15.147-77.867l124.8-124.8c64.427 53.76 115.2 123.307 146.56 202.667-74.027 187.307-256 320-469.547 320-59.733 0-116.907-10.667-170.027-29.867l92.16-91.947c24.107 9.387 50.347 15.147 77.867 15.147zM85.333 756.267l116.693-116.693c-70.4-55.040-126.080-128.213-159.36-212.907 73.813-187.307 256-320 469.333-320 66.133 0 129.28 12.8 187.093 36.053l18.133-18.133 124.373-124.587 54.4 54.187-756.267 756.48-54.4-54.4zM321.28 520.534l65.92-65.92c-1.92-9.173-3.2-18.347-3.2-27.947 0-70.613 57.387-128 128-128 9.6 0 18.773 1.28 27.733 3.2l65.92-65.92c-28.373-14.080-59.947-22.613-93.653-22.613-117.76 0-213.333 95.573-213.333 213.333 0 33.707 8.533 65.28 22.613 93.867zM504.96 554.027l134.4-134.4 0.64 7.040c0 70.613-57.387 128-128 128l-7.040-0.64z" />
<glyph unicode="&#xe6a1;" glyph-name="work" d="M853.333 682.667h-170.667v85.333c0 47.147-38.187 85.333-85.333 85.333h-170.667c-47.147 0-85.333-38.187-85.333-85.333v-85.333h-170.667c-47.147 0-84.907-38.187-84.907-85.333l-0.427-469.333c0-47.147 38.187-85.333 85.333-85.333h682.667c47.147 0 85.333 38.187 85.333 85.333v469.333c0 47.147-38.187 85.333-85.333 85.333zM597.333 682.667h-170.667v85.333h170.667v-85.333z" />
<glyph unicode="&#xe6a2;" glyph-name="error" d="M512 853.334c-235.52 0-426.667-190.933-426.667-426.667s191.147-426.667 426.667-426.667 426.667 190.933 426.667 426.667-191.147 426.667-426.667 426.667zM554.667 213.334h-85.333v85.333h85.333v-85.333zM554.667 384h-85.333v256h85.333v-256z" />
<glyph unicode="&#xe6a3;" glyph-name="warning" d="M42.667 42.667h938.667l-469.333 810.667-469.333-810.667zM554.667 170.667h-85.333v85.333h85.333v-85.333zM554.667 341.334h-85.333v170.667h85.333v-170.667z" />
<glyph unicode="&#xe6a4;" glyph-name="album" d="M512 853.334c-235.733 0-426.667-190.933-426.667-426.667s190.933-426.667 426.667-426.667 426.667 190.933 426.667 426.667-190.933 426.667-426.667 426.667zM512 234.667c-106.027 0-192 85.973-192 192s85.973 192 192 192 192-85.973 192-192-85.973-192-192-192zM512 469.334c-23.467 0-42.667-19.2-42.667-42.667s19.2-42.667 42.667-42.667 42.667 19.2 42.667 42.667-19.2 42.667-42.667 42.667z" />
<glyph unicode="&#xe6a5;" glyph-name="av-timer" d="M469.333 213.334c0-23.467 19.2-42.667 42.667-42.667s42.667 19.2 42.667 42.667-19.2 42.667-42.667 42.667-42.667-19.2-42.667-42.667zM469.333 810.667v-170.667h85.333v81.92c144.64-20.693 256-144.853 256-295.253 0-164.907-133.76-298.667-298.667-298.667s-298.667 133.76-298.667 298.667c0 71.68 25.173 137.173 67.2 188.8l231.467-231.467 60.373 60.373-290.133 290.133-0.427-0.853c-93.227-69.973-153.813-181.333-153.813-306.987 0-212.053 171.52-384 383.787-384s384.213 171.947 384.213 384-171.947 384-384.213 384h-42.453zM768 426.667c0 23.467-19.2 42.667-42.667 42.667s-42.667-19.2-42.667-42.667 19.2-42.667 42.667-42.667 42.667 19.2 42.667 42.667zM256 426.667c0-23.467 19.2-42.667 42.667-42.667s42.667 19.2 42.667 42.667-19.2 42.667-42.667 42.667-42.667-19.2-42.667-42.667z" />
<glyph unicode="&#xe6a7;" glyph-name="equalizer" d="M426.667 85.334h170.667v682.667h-170.667v-682.667zM170.667 85.334h170.667v341.333h-170.667v-341.333zM682.667 554.667v-469.333h170.667v469.333h-170.667z" />
<glyph unicode="&#xe6a8;" glyph-name="explicit" d="M810.667 810.667h-597.333c-47.147 0-85.333-38.187-85.333-85.333v-597.333c0-47.147 38.187-85.333 85.333-85.333h597.333c47.147 0 85.333 38.187 85.333 85.333v597.333c0 47.147-38.187 85.333-85.333 85.333zM640 554.667h-170.667v-85.333h170.667v-85.333h-170.667v-85.333h170.667v-85.333h-256v426.667h256v-85.333z" />
<glyph unicode="&#xe6a9;" glyph-name="fast-forward" d="M170.667 170.667l362.667 256-362.667 256v-512zM554.667 682.667v-512l362.667 256-362.667 256z" />
<glyph unicode="&#xe6aa;" glyph-name="fast-rewind" d="M469.333 170.667v512l-362.667-256 362.667-256zM490.667 426.667l362.667-256v512l-362.667-256z" />
<glyph unicode="&#xe6ae;" glyph-name="loop" d="M512 768v128l-170.667-170.667 170.667-170.667v128c141.44 0 256-114.56 256-256 0-43.307-10.88-83.84-29.653-119.68l62.293-62.293c33.067 52.907 52.693 114.987 52.693 181.973 0 188.587-152.747 341.333-341.333 341.333zM512 170.667c-141.44 0-256 114.56-256 256 0 43.307 10.88 83.84 29.653 119.68l-62.293 62.293c-33.067-52.907-52.693-114.987-52.693-181.973 0-188.587 152.747-341.333 341.333-341.333v-128l170.667 170.667-170.667 170.667v-128z" />
<glyph unicode="&#xe6b3;" glyph-name="my-library-add" d="M170.667 682.667h-85.333v-597.333c0-47.147 38.187-85.333 85.333-85.333h597.333v85.333h-597.333v597.333zM853.333 853.334h-512c-47.147 0-85.333-38.187-85.333-85.333v-512c0-47.147 38.187-85.333 85.333-85.333h512c47.147 0 85.333 38.187 85.333 85.333v512c0 47.147-38.187 85.333-85.333 85.333zM810.667 469.334h-170.667v-170.667h-85.333v170.667h-170.667v85.333h170.667v170.667h85.333v-170.667h170.667v-85.333z" />
<glyph unicode="&#xe6b4;" glyph-name="my-library-books" d="M170.667 682.667h-85.333v-597.333c0-47.147 38.187-85.333 85.333-85.333h597.333v85.333h-597.333v597.333zM853.333 853.334h-512c-47.147 0-85.333-38.187-85.333-85.333v-512c0-47.147 38.187-85.333 85.333-85.333h512c47.147 0 85.333 38.187 85.333 85.333v512c0 47.147-38.187 85.333-85.333 85.333zM810.667 469.334h-426.667v85.333h426.667v-85.333zM640 298.667h-256v85.333h256v-85.333zM810.667 640h-426.667v85.333h426.667v-85.333z" />
<glyph unicode="&#xe6b5;" glyph-name="my-library-mus" d="M853.333 853.334h-512c-47.147 0-85.333-38.187-85.333-85.333v-512c0-47.147 38.187-85.333 85.333-85.333h512c47.147 0 85.333 38.187 85.333 85.333v512c0 47.147-38.187 85.333-85.333 85.333zM768 640h-128v-234.667c0-58.88-47.787-106.667-106.667-106.667s-106.667 47.787-106.667 106.667 47.787 106.667 106.667 106.667c24.107 0 46.080-8.32 64-21.76v235.093h170.667v-85.333zM170.667 682.667h-85.333v-597.333c0-47.147 38.187-85.333 85.333-85.333h597.333v85.333h-597.333v597.333z" />
<glyph unicode="&#xe6b6;" glyph-name="new-releases" d="M981.333 426.667l-104.107 118.613 14.507 157.227-154.027 34.773-80.64 135.68-145.067-62.293-145.067 62.293-80.64-135.68-154.027-34.773 14.507-157.227-104.107-118.613 104.107-118.613-14.507-157.227 154.027-34.773 80.64-135.68 145.067 62.293 145.067-62.293 80.64 135.68 154.027 34.773-14.507 157.227 104.107 118.613zM554.667 213.334h-85.333v85.333h85.333v-85.333zM554.667 384h-85.333v256h85.333v-256z" />
<glyph unicode="&#xe6b7;" glyph-name="not-interested" d="M512 853.334c-235.733 0-426.667-190.933-426.667-426.667s190.933-426.667 426.667-426.667 426.667 190.933 426.667 426.667-190.933 426.667-426.667 426.667zM512 85.334c-188.587 0-341.333 152.747-341.333 341.333 0 78.933 27.093 151.253 71.893 209.067l478.507-478.507c-57.813-44.8-130.133-71.893-209.067-71.893zM781.44 217.6l-478.507 478.507c57.813 44.8 130.133 71.893 209.067 71.893 188.587 0 341.333-152.747 341.333-341.333 0-78.933-27.093-151.253-71.893-209.067z" />
<glyph unicode="&#xe6b8;" glyph-name="pause" d="M256 128h170.667v597.333h-170.667v-597.333zM597.333 725.334v-597.333h170.667v597.333h-170.667z" />
<glyph unicode="&#xe6b9;" glyph-name="pause-circle-fill" d="M512 853.334c-235.733 0-426.667-190.933-426.667-426.667s190.933-426.667 426.667-426.667 426.667 190.933 426.667 426.667-190.933 426.667-426.667 426.667zM469.333 256h-85.333v341.333h85.333v-341.333zM640 256h-85.333v341.333h85.333v-341.333z" />
<glyph unicode="&#xe6ba;" glyph-name="pause-circle-outline" d="M384 256h85.333v341.333h-85.333v-341.333zM512 853.334c-235.733 0-426.667-190.933-426.667-426.667s190.933-426.667 426.667-426.667 426.667 190.933 426.667 426.667-190.933 426.667-426.667 426.667zM512 85.334c-188.16 0-341.333 153.173-341.333 341.333s153.173 341.333 341.333 341.333 341.333-153.173 341.333-341.333-153.173-341.333-341.333-341.333zM554.667 256h85.333v341.333h-85.333v-341.333z" />
<glyph unicode="&#xe6bb;" glyph-name="play-arrow" d="M341.333 725.334v-597.333l469.333 298.667z" />
<glyph unicode="&#xe6bc;" glyph-name="play-circle-fill" d="M512 853.334c-235.733 0-426.667-190.933-426.667-426.667s190.933-426.667 426.667-426.667 426.667 190.933 426.667 426.667-190.933 426.667-426.667 426.667zM426.667 234.667v384l256-192-256-192z" />
<glyph unicode="&#xe6bd;" glyph-name="play-circle-outline" d="M426.667 234.667l256 192-256 192v-384zM512 853.334c-235.733 0-426.667-190.933-426.667-426.667s190.933-426.667 426.667-426.667 426.667 190.933 426.667 426.667-190.933 426.667-426.667 426.667zM512 85.334c-188.16 0-341.333 153.173-341.333 341.333s153.173 341.333 341.333 341.333 341.333-153.173 341.333-341.333-153.173-341.333-341.333-341.333z" />
<glyph unicode="&#xe6bf;" glyph-name="playlist-add" d="M597.333 512h-512v-85.333h512v85.333zM597.333 682.667h-512v-85.333h512v85.333zM768 341.334v170.667h-85.333v-170.667h-170.667v-85.333h170.667v-170.667h85.333v170.667h170.667v85.333h-170.667zM85.333 256h341.333v85.333h-341.333v-85.333z" />
<glyph unicode="&#xe6c0;" glyph-name="queue" d="M170.667 682.667h-85.333v-597.333c0-47.147 38.187-85.333 85.333-85.333h597.333v85.333h-597.333v597.333zM853.333 853.334h-512c-47.147 0-85.333-38.187-85.333-85.333v-512c0-47.147 38.187-85.333 85.333-85.333h512c47.147 0 85.333 38.187 85.333 85.333v512c0 47.147-38.187 85.333-85.333 85.333zM810.667 469.334h-170.667v-170.667h-85.333v170.667h-170.667v85.333h170.667v170.667h85.333v-170.667h170.667v-85.333z" />
<glyph unicode="&#xe6c1;" glyph-name="queue-mus" d="M640 682.667h-512v-85.333h512v85.333zM640 512h-512v-85.333h512v85.333zM128 256h341.333v85.333h-341.333v-85.333zM725.333 682.667v-349.227c-13.44 4.907-27.52 7.893-42.667 7.893-70.613 0-128-57.387-128-128s57.387-128 128-128 128 57.387 128 128v384h128v85.333h-213.333z" />
<glyph unicode="&#xe6c3;" glyph-name="recent-actors" d="M896 725.334v-597.333h85.333v597.333h-85.333zM725.333 128h85.333v597.333h-85.333v-597.333zM597.333 725.334h-512c-23.467 0-42.667-19.2-42.667-42.667v-512c0-23.467 19.2-42.667 42.667-42.667h512c23.467 0 42.667 19.2 42.667 42.667v512c0 23.467-19.2 42.667-42.667 42.667zM341.333 608c52.907 0 96-43.093 96-96 0-53.12-43.093-96-96-96s-96 42.88-96 96c0 52.907 43.093 96 96 96zM533.333 213.334h-384v32c0 64 128 96 192 96s192-32 192-96v-32z" />
<glyph unicode="&#xe6cb;" glyph-name="stop" d="M256 682.667h512v-512h-512z" />
<glyph unicode="&#xe6cc;" glyph-name="subtitles" d="M853.333 768h-682.667c-47.147 0-85.333-38.187-85.333-85.333v-512c0-47.147 38.187-85.333 85.333-85.333h682.667c47.147 0 85.333 38.187 85.333 85.333v512c0 47.147-38.187 85.333-85.333 85.333zM170.667 426.667h170.667v-85.333h-170.667v85.333zM597.333 170.667h-426.667v85.333h426.667v-85.333zM853.333 170.667h-170.667v85.333h170.667v-85.333zM853.333 341.334h-426.667v85.333h426.667v-85.333z" />
<glyph unicode="&#xe6cf;" glyph-name="videocam" d="M725.333 490.667v149.333c0 23.467-19.2 42.667-42.667 42.667h-512c-23.467 0-42.667-19.2-42.667-42.667v-426.667c0-23.467 19.2-42.667 42.667-42.667h512c23.467 0 42.667 19.2 42.667 42.667v149.333l170.667-170.667v469.333l-170.667-170.667z" />
<glyph unicode="&#xe6d0;" glyph-name="videocam-off" d="M896 661.334l-170.667-170.667v149.333c0 23.467-19.2 42.667-42.667 42.667h-263.68l477.013-477.013v455.68zM139.733 853.334l-54.4-54.4 116.267-116.267h-30.933c-23.467 0-42.667-19.2-42.667-42.667v-426.667c0-23.467 19.2-42.667 42.667-42.667h512c8.747 0 16.427 3.2 23.253 7.893l135.893-135.893 54.187 54.4-756.267 756.267z" />
<glyph unicode="&#xe6d1;" glyph-name="volume-down" d="M789.333 426.667c0 75.52-43.52 140.373-106.667 171.947v-343.467c63.147 31.147 106.667 96 106.667 171.52zM213.333 554.667v-256h170.667l213.333-213.333v682.667l-213.333-213.333h-170.667z" />
<glyph unicode="&#xe6d2;" glyph-name="volume-mute" d="M298.667 554.667v-256h170.667l213.333-213.333v682.667l-213.333-213.333h-170.667z" />
<glyph unicode="&#xe6d3;" glyph-name="volume-off" d="M704 426.667c0 75.307-43.52 140.373-106.667 171.733v-94.293l104.747-104.747c1.28 8.96 1.92 18.133 1.92 27.307zM810.667 426.667c0-40.107-8.747-77.867-23.040-112.64l64.64-64.64c27.733 53.12 43.733 113.28 43.733 177.28 0 182.613-127.787 335.36-298.667 374.187v-88.107c123.307-36.693 213.333-150.827 213.333-286.080zM182.4 810.667l-54.4-54.4 201.6-201.6h-201.6v-256h170.667l213.333-213.333v286.933l181.547-181.547c-28.587-21.973-60.8-39.68-96.213-50.347v-88.107c58.667 13.44 112.213 40.32 157.227 77.227l87.040-86.827 54.4 54.4-713.6 713.6zM512 768l-89.173-89.173 89.173-89.173v178.347z" />
<glyph unicode="&#xe6d4;" glyph-name="volume-up" d="M128 554.667v-256h170.667l213.333-213.333v682.667l-213.333-213.333h-170.667zM704 426.667c0 75.52-43.52 140.373-106.667 171.947v-343.467c63.147 31.147 106.667 96 106.667 171.52zM597.333 800.854v-87.893c123.307-36.693 213.333-151.040 213.333-286.293s-90.027-249.6-213.333-286.293v-87.893c171.093 38.827 298.667 191.573 298.667 374.187s-127.573 335.36-298.667 374.187z" />
<glyph unicode="&#xe6d5;" glyph-name="web" d="M853.333 768h-682.667c-46.933 0-84.907-38.4-84.907-85.333l-0.427-512c0-46.933 38.4-85.333 85.333-85.333h682.667c46.933 0 85.333 38.4 85.333 85.333v512c0 46.933-38.4 85.333-85.333 85.333zM640 170.667h-469.333v170.667h469.333v-170.667zM640 384h-469.333v170.667h469.333v-170.667zM853.333 170.667h-170.667v384h170.667v-384z" />
<glyph unicode="&#xe6d9;" glyph-name="call-made" d="M384 725.334v-85.333h280.96l-494.293-494.293 60.373-60.373 494.293 494.293v-280.96h85.333v426.667z" />
<glyph unicode="&#xe6da;" glyph-name="call-merge" d="M725.333 67.627l60.373 60.373-145.707 145.707-60.373-60.373 145.707-145.707zM320 597.334h149.333v-238.293l-231.040-231.040 60.373-60.373 256 256v273.707h149.333l-192 192-192-192z" />
<glyph unicode="&#xe6db;" glyph-name="call-missed" d="M835.627 640l-323.627-323.627-238.293 238.293h195.627v85.333h-341.333v-341.333h85.333v195.627l298.667-298.667 384 384z" />
<glyph unicode="&#xe6dc;" glyph-name="call-received" d="M853.333 707.627l-60.373 60.373-494.293-494.293v280.96h-85.333v-426.667h426.667v85.333h-280.96z" />
<glyph unicode="&#xe6dd;" glyph-name="call-split" d="M597.333 768l97.92-97.92-122.88-122.667 60.373-60.373 122.667 122.88 97.92-97.92v256zM426.667 768h-256v-256l97.92 97.92 200.747-200.96v-323.627h85.333v359.040l-225.92 225.707z" />
<glyph unicode="&#xe6de;" glyph-name="chat" d="M853.333 853.334h-682.667c-47.147 0-84.907-38.187-84.907-85.333l-0.427-768 170.667 170.667h597.333c47.147 0 85.333 38.187 85.333 85.333v512c0 47.147-38.187 85.333-85.333 85.333zM256 554.667h512v-85.333h-512v85.333zM597.333 341.334h-341.333v85.333h341.333v-85.333zM768 597.334h-512v85.333h512v-85.333z" />
<glyph unicode="&#xe6df;" glyph-name="clear-all" d="M213.333 384h597.333v85.333h-597.333v-85.333zM128 213.334h597.333v85.333h-597.333v-85.333zM298.667 640v-85.333h597.333v85.333h-597.333z" />
<glyph unicode="&#xe6e0;" glyph-name="comment" d="M938.24 768c0 47.147-37.76 85.333-84.907 85.333h-682.667c-47.147 0-85.333-38.187-85.333-85.333v-512c0-47.147 38.187-85.333 85.333-85.333h597.333l170.667-170.667-0.427 768zM768 341.334h-512v85.333h512v-85.333zM768 469.334h-512v85.333h512v-85.333zM768 597.334h-512v85.333h512v-85.333z" />
<glyph unicode="&#xe6e1;" glyph-name="contacts" d="M853.333 938.667h-682.667v-85.333h682.667v85.333zM170.667-85.333h682.667v85.333h-682.667v-85.333zM853.333 768h-682.667c-47.147 0-85.333-38.187-85.333-85.333v-512c0-47.147 38.187-85.333 85.333-85.333h682.667c47.147 0 85.333 38.187 85.333 85.333v512c0 47.147-38.187 85.333-85.333 85.333zM512 650.667c52.907 0 96-43.093 96-96 0-53.12-43.093-96-96-96s-96 42.88-96 96c0 52.907 43.093 96 96 96zM725.333 213.334h-426.667v64c0 71.040 142.293 106.667 213.333 106.667s213.333-35.627 213.333-106.667v-64z" />
<glyph unicode="&#xe6e4;" glyph-name="dnd-on" d="M512 853.334c-235.733 0-426.667-190.933-426.667-426.667s190.933-426.667 426.667-426.667 426.667 190.933 426.667 426.667-190.933 426.667-426.667 426.667zM512 85.334c-188.587 0-341.333 152.747-341.333 341.333 0 78.933 27.093 151.253 71.893 209.067l478.507-478.507c-57.813-44.8-130.133-71.893-209.067-71.893zM781.44 217.6l-478.507 478.507c57.813 44.8 130.133 71.893 209.067 71.893 188.587 0 341.333-152.747 341.333-341.333 0-78.933-27.093-151.253-71.893-209.067z" />
<glyph unicode="&#xe6e5;" glyph-name="email" d="M853.333 768h-682.667c-47.147 0-84.907-38.187-84.907-85.333l-0.427-512c0-47.147 38.187-85.333 85.333-85.333h682.667c47.147 0 85.333 38.187 85.333 85.333v512c0 47.147-38.187 85.333-85.333 85.333zM853.333 597.334l-341.333-213.333-341.333 213.333v85.333l341.333-213.333 341.333 213.333v-85.333z" />
<glyph unicode="&#xe6e6;" glyph-name="forum" d="M896 682.667h-85.333v-384h-554.667v-85.333c0-23.467 19.2-42.667 42.667-42.667h469.333l170.667-170.667v640c0 23.467-19.2 42.667-42.667 42.667zM725.333 426.667v384c0 23.467-19.2 42.667-42.667 42.667h-554.667c-23.467 0-42.667-19.2-42.667-42.667v-597.333l170.667 170.667h426.667c23.467 0 42.667 19.2 42.667 42.667z" />
<glyph unicode="&#xe6e7;" glyph-name="import-export" d="M384 810.667l-170.667-170.24h128v-299.093h85.333v299.093h128l-170.667 170.24zM682.667 212.907v299.093h-85.333v-299.093h-128l170.667-170.24 170.667 170.24h-128z" />
<glyph unicode="&#xe6e8;" glyph-name="invert-colors-off" d="M880.853 48l-698.667 698.667-54.187-54.4 118.613-118.613c-108.8-133.973-100.693-331.307 23.893-456.107 66.56-66.56 154.027-100.053 241.28-100.053 76.16 0 152.32 25.387 214.613 75.947l115.2-114.773 54.4 54.4-15.147 14.933zM512 103.040c-68.48 0-132.693 26.667-180.907 74.88-48.427 48.427-75.093 112.64-75.093 181.12 0 56.32 18.347 109.653 51.627 153.813l204.373-204.587v-205.227zM512 721.067v-195.413l309.547-309.547c58.24 126.080 35.84 280.32-68.267 384.427l-241.28 241.28-158.080-158.080 60.373-60.373 97.707 97.707z" />
<glyph unicode="&#xe6e9;" glyph-name="invert-colors-on" d="M753.28 600.32l-241.28 241.493-241.28-241.493c-133.333-133.333-133.333-349.44 0-482.773 66.56-66.56 154.027-100.053 241.28-100.053s174.72 33.28 241.28 100.053c133.333 133.333 133.333 349.44 0 482.773zM512 103.040c-68.48 0-132.693 26.667-180.907 75.093-48.427 48.213-75.093 112.427-75.093 180.907s26.667 132.693 75.093 181.12l180.907 180.907v-618.027z" />
<glyph unicode="&#xe6ea;" glyph-name="live-help" d="M810.667 853.334h-597.333c-47.147 0-85.333-38.187-85.333-85.333v-597.333c0-47.147 38.187-85.333 85.333-85.333h170.667l128-128 128 128h170.667c47.147 0 85.333 38.187 85.333 85.333v597.333c0 47.147-38.187 85.333-85.333 85.333zM554.667 170.667h-85.333v85.333h85.333v-85.333zM642.773 501.12l-38.187-39.253c-30.72-30.72-49.92-56.533-49.92-120.533h-85.333v21.333c0 47.147 19.2 89.813 49.92 120.747l53.12 53.76c15.36 15.36 24.96 36.693 24.96 60.16 0 47.147-38.187 85.333-85.333 85.333s-85.333-38.187-85.333-85.333h-85.333c0 94.293 76.373 170.667 170.667 170.667s170.667-76.373 170.667-170.667c0-37.547-15.147-71.467-39.893-96.213z" />
<glyph unicode="&#xe6eb;" glyph-name="location-off" d="M512 661.334c58.88 0 106.667-47.787 106.667-106.667 0-31.36-13.867-59.307-35.413-78.933l154.88-154.88c41.6 79.36 72.533 161.92 72.533 233.813 0 164.907-133.76 298.667-298.667 298.667-84.48 0-160.64-35.2-214.827-91.52l135.893-135.893c19.413 21.547 47.573 35.413 78.933 35.413zM698.667 251.734l-559.147 558.933-54.187-54.4 135.68-135.68c-4.907-21.12-7.68-43.093-7.68-65.92 0-224 298.667-554.667 298.667-554.667s71.253 78.933 144 185.6l142.933-142.933 54.4 54.4-154.667 154.667z" />
<glyph unicode="&#xe6ec;" glyph-name="location-on" d="M512 853.334c-164.907 0-298.667-133.76-298.667-298.667 0-224 298.667-554.667 298.667-554.667s298.667 330.667 298.667 554.667c0 164.907-133.76 298.667-298.667 298.667zM512 448c-58.88 0-106.667 47.787-106.667 106.667s47.787 106.667 106.667 106.667 106.667-47.787 106.667-106.667-47.787-106.667-106.667-106.667z" />
<glyph unicode="&#xe6ed;" glyph-name="message" d="M853.333 853.334h-682.667c-47.147 0-84.907-38.187-84.907-85.333l-0.427-768 170.667 170.667h597.333c47.147 0 85.333 38.187 85.333 85.333v512c0 47.147-38.187 85.333-85.333 85.333zM768 341.334h-512v85.333h512v-85.333zM768 469.334h-512v85.333h512v-85.333zM768 597.334h-512v85.333h512v-85.333z" />
<glyph unicode="&#xe6ee;" glyph-name="messenger" d="M853.333 853.334h-682.667c-47.147 0-85.333-38.187-85.333-85.333v-768l170.667 170.667h597.333c47.147 0 85.333 38.187 85.333 85.333v512c0 47.147-38.187 85.333-85.333 85.333z" />
<glyph unicode="&#xe6ef;" glyph-name="no-sim" d="M810.24 725.334c0 47.147-37.76 85.333-84.907 85.333h-298.667l-99.84-99.84 483.84-483.84-0.427 498.347zM155.733 773.12l-54.187-54.187 111.787-112v-478.933c0-47.147 38.187-85.333 85.333-85.333h427.093c14.933 0 28.8 4.267 40.96 10.88l80.213-80.213 54.187 54.4-745.387 745.387z" />
<glyph unicode="&#xe6f0;" glyph-name="phone" d="M282.667 478.080c61.44-120.747 160.213-219.52 281.173-280.96l93.867 94.080c11.733 11.733 28.587 15.147 43.307 10.453 47.787-15.787 99.2-24.32 152.32-24.32 23.68 0 42.667-18.987 42.667-42.667v-149.333c0-23.68-18.987-42.667-42.667-42.667-400.64 0-725.333 324.693-725.333 725.333 0 23.68 19.2 42.667 42.667 42.667h149.333c23.68 0 42.667-18.987 42.667-42.667 0-53.12 8.533-104.533 24.32-152.32 4.693-14.72 1.28-31.573-10.453-43.307l-93.867-94.293z" />
<glyph unicode="&#xe6f5;" glyph-name="stay-current-landscape" d="M43.093 640l-0.427-426.667c0-47.147 38.187-85.333 85.333-85.333h768c47.147 0 85.333 38.187 85.333 85.333v426.667c0 47.147-38.187 85.333-85.333 85.333h-768c-47.147 0-84.907-38.187-84.907-85.333zM810.667 640v-426.667h-597.333v426.667h597.333z" />
<glyph unicode="&#xe6f6;" glyph-name="stay-current-portrait" d="M725.333 895.574l-426.667 0.427c-47.147 0-84.907-38.187-84.907-85.333v-768c0-47.147 37.76-85.333 84.907-85.333h426.667c47.147 0 85.333 38.187 85.333 85.333v768c0 47.147-38.187 84.907-85.333 84.907zM725.333 128h-426.667v597.333h426.667v-597.333z" />
<glyph unicode="&#xe6f7;" glyph-name="stay-primary-landscape" d="M43.093 640l-0.427-426.667c0-47.147 38.187-85.333 85.333-85.333h768c47.147 0 85.333 38.187 85.333 85.333v426.667c0 47.147-38.187 85.333-85.333 85.333h-768c-47.147 0-84.907-38.187-84.907-85.333zM810.667 640v-426.667h-597.333v426.667h597.333z" />
<glyph unicode="&#xe6f8;" glyph-name="stay-primary-portrait" d="M725.333 895.574l-426.667 0.427c-47.147 0-84.907-38.187-84.907-85.333v-768c0-47.147 37.76-85.333 84.907-85.333h426.667c47.147 0 85.333 38.187 85.333 85.333v768c0 47.147-38.187 84.907-85.333 84.907zM725.333 128h-426.667v597.333h426.667v-597.333z" />
<glyph unicode="&#xe6f9;" glyph-name="swap-calls" d="M768 768l-170.667-170.667h128v-298.667c0-47.147-38.187-85.333-85.333-85.333s-85.333 38.187-85.333 85.333v298.667c0 94.080-76.587 170.667-170.667 170.667s-170.667-76.587-170.667-170.667v-298.667h-128l170.667-170.667 170.667 170.667h-128v298.667c0 47.147 38.187 85.333 85.333 85.333s85.333-38.187 85.333-85.333v-298.667c0-94.080 76.587-170.667 170.667-170.667s170.667 76.587 170.667 170.667v298.667h128l-170.667 170.667z" />
<glyph unicode="&#xe6fa;" glyph-name="textsms" d="M853.333 853.334h-682.667c-47.147 0-84.907-38.187-84.907-85.333l-0.427-768 170.667 170.667h597.333c47.147 0 85.333 38.187 85.333 85.333v512c0 47.147-38.187 85.333-85.333 85.333zM384 469.334h-85.333v85.333h85.333v-85.333zM554.667 469.334h-85.333v85.333h85.333v-85.333zM725.333 469.334h-85.333v85.333h85.333v-85.333z" />
<glyph unicode="&#xe6fc;" glyph-name="vpn-key" d="M539.733 512c-35.2 99.413-129.707 170.667-241.067 170.667-141.44 0-256-114.56-256-256s114.56-256 256-256c111.36 0 205.867 71.253 241.067 170.667h185.6v-170.667h170.667v170.667h85.333v170.667h-441.6zM298.667 341.334c-47.147 0-85.333 38.187-85.333 85.333s38.187 85.333 85.333 85.333 85.333-38.187 85.333-85.333-38.187-85.333-85.333-85.333z" />
<glyph unicode="&#xe6fd;" glyph-name="add" d="M810.667 384h-256v-256h-85.333v256h-256v85.333h256v256h85.333v-256h256v-85.333z" />
<glyph unicode="&#xe6fe;" glyph-name="add-box" d="M810.667 810.667h-597.333c-47.147 0-85.333-38.187-85.333-85.333v-597.333c0-47.147 38.187-85.333 85.333-85.333h597.333c47.147 0 85.333 38.187 85.333 85.333v597.333c0 47.147-38.187 85.333-85.333 85.333zM725.333 384h-170.667v-170.667h-85.333v170.667h-170.667v85.333h170.667v170.667h85.333v-170.667h170.667v-85.333z" />
<glyph unicode="&#xe6ff;" glyph-name="add-circle" d="M512 853.334c-235.733 0-426.667-190.933-426.667-426.667s190.933-426.667 426.667-426.667 426.667 190.933 426.667 426.667-190.933 426.667-426.667 426.667zM725.333 384h-170.667v-170.667h-85.333v170.667h-170.667v85.333h170.667v170.667h85.333v-170.667h170.667v-85.333z" />
<glyph unicode="&#xe700;" glyph-name="add-circle-outline" d="M554.667 640h-85.333v-170.667h-170.667v-85.333h170.667v-170.667h85.333v170.667h170.667v85.333h-170.667v170.667zM512 853.334c-235.733 0-426.667-190.933-426.667-426.667s190.933-426.667 426.667-426.667 426.667 190.933 426.667 426.667-190.933 426.667-426.667 426.667zM512 85.334c-188.16 0-341.333 153.173-341.333 341.333s153.173 341.333 341.333 341.333 341.333-153.173 341.333-341.333-153.173-341.333-341.333-341.333z" />
<glyph unicode="&#xe701;" glyph-name="archive" d="M876.587 715.734l-59.093 71.68c-11.947 14.080-29.653 23.253-49.493 23.253h-512c-19.84 0-37.547-9.173-49.28-23.253l-59.093-71.68c-12.373-14.933-19.627-33.707-19.627-54.4v-533.333c0-47.147 38.187-85.333 85.333-85.333h597.333c47.147 0 85.333 38.187 85.333 85.333v533.333c0 20.693-7.253 39.467-19.413 54.4zM512 192l-234.667 234.667h149.333v85.333h170.667v-85.333h149.333l-234.667-234.667zM218.667 725.334l34.773 42.667h512l39.893-42.667h-586.667z" />
<glyph unicode="&#xe702;" glyph-name="backspace" d="M938.667 810.667h-640c-29.44 0-52.693-14.933-68.053-37.547l-230.613-346.24 230.613-346.24c15.36-22.613 38.613-37.973 68.053-37.973h640c47.147 0 85.333 38.187 85.333 85.333v597.333c0 47.147-38.187 85.333-85.333 85.333zM810.667 273.707l-60.373-60.373-152.96 152.96-152.96-152.96-60.373 60.373 152.96 152.96-152.96 152.96 60.373 60.373 152.96-152.96 152.96 152.96 60.373-60.373-152.96-152.96 152.96-152.96z" />
<glyph unicode="&#xe703;" glyph-name="block" d="M512 853.334c-235.733 0-426.667-190.933-426.667-426.667s190.933-426.667 426.667-426.667 426.667 190.933 426.667 426.667-190.933 426.667-426.667 426.667zM170.667 426.667c0 188.587 152.747 341.333 341.333 341.333 78.933 0 151.253-27.093 209.067-71.893l-478.507-478.507c-44.8 57.813-71.893 130.133-71.893 209.067zM512 85.334c-78.933 0-151.253 27.093-209.067 71.893l478.507 478.507c44.8-57.813 71.893-130.133 71.893-209.067 0-188.587-152.747-341.333-341.333-341.333z" />
<glyph unicode="&#xe704;" glyph-name="clear" d="M810.667 664.96l-60.373 60.373-238.293-238.293-238.293 238.293-60.373-60.373 238.293-238.293-238.293-238.293 60.373-60.373 238.293 238.293 238.293-238.293 60.373 60.373-238.293 238.293z" />
<glyph unicode="&#xe705;" glyph-name="content-copy" d="M682.667 896h-512c-47.147 0-85.333-38.187-85.333-85.333v-597.333h85.333v597.333h512v85.333zM810.667 725.334h-469.333c-47.147 0-85.333-38.187-85.333-85.333v-597.333c0-47.147 38.187-85.333 85.333-85.333h469.333c47.147 0 85.333 38.187 85.333 85.333v597.333c0 47.147-38.187 85.333-85.333 85.333zM810.667 42.667h-469.333v597.333h469.333v-597.333z" />
<glyph unicode="&#xe706;" glyph-name="content-cut" d="M411.307 612.694c9.6 21.333 15.36 45.013 15.36 69.973 0 94.293-76.373 170.667-170.667 170.667s-170.667-76.373-170.667-170.667 76.373-170.667 170.667-170.667c24.96 0 48.64 5.76 69.973 15.36l100.693-100.693-100.693-100.693c-21.333 9.6-45.013 15.36-69.973 15.36-94.293 0-170.667-76.373-170.667-170.667s76.373-170.667 170.667-170.667 170.667 76.373 170.667 170.667c0 24.96-5.76 48.64-15.36 69.973l100.693 100.693 298.667-298.667h128v42.667l-527.36 527.36zM256 597.334c-47.147 0-85.333 38.187-85.333 85.333s38.187 85.333 85.333 85.333 85.333-38.187 85.333-85.333-38.187-85.333-85.333-85.333zM256 85.334c-47.147 0-85.333 38.187-85.333 85.333s38.187 85.333 85.333 85.333 85.333-38.187 85.333-85.333-38.187-85.333-85.333-85.333zM512 405.334c-11.733 0-21.333 9.6-21.333 21.333s9.6 21.333 21.333 21.333 21.333-9.6 21.333-21.333-9.6-21.333-21.333-21.333zM810.667 810.667l-256-256 85.333-85.333 298.667 298.667v42.667z" />
<glyph unicode="&#xe707;" glyph-name="content-paste" d="M810.667 853.334h-178.56c-17.493 49.493-64.427 85.333-120.107 85.333s-102.613-35.84-120.107-85.333h-178.56c-47.147 0-85.333-38.187-85.333-85.333v-682.667c0-47.147 38.187-85.333 85.333-85.333h597.333c47.147 0 85.333 38.187 85.333 85.333v682.667c0 47.147-38.187 85.333-85.333 85.333zM512 853.334c23.467 0 42.667-18.987 42.667-42.667s-19.2-42.667-42.667-42.667-42.667 18.987-42.667 42.667 19.2 42.667 42.667 42.667zM810.667 85.334h-597.333v682.667h85.333v-128h426.667v128h85.333v-682.667z" />
<glyph unicode="&#xe708;" glyph-name="create" d="M128 202.667v-160h160l472.107 472.107-160 160-472.107-472.107zM883.413 638.080c16.64 16.64 16.64 43.733 0 60.373l-99.627 99.627c-16.64 16.64-43.733 16.64-60.373 0l-78.080-78.080 160-160 78.080 78.080z" />
<glyph unicode="&#xe709;" glyph-name="drafts" d="M938.24 597.334c0 30.72-16 57.387-40.107 72.533l-386.133 226.133-386.133-226.133c-24.107-15.147-40.533-41.813-40.533-72.533v-426.667c0-47.147 38.187-85.333 85.333-85.333h682.667c47.147 0 85.333 38.187 85.333 85.333l-0.427 426.667zM512 384l-352.427 220.373 352.427 206.293 352.427-206.293-352.427-220.373z" />
<glyph unicode="&#xe70a;" glyph-name="filter-list" d="M426.667 170.667h170.667v85.333h-170.667v-85.333zM128 682.667v-85.333h768v85.333h-768zM256 384h512v85.333h-512v-85.333z" />
<glyph unicode="&#xe70b;" glyph-name="flag" d="M614.4 682.667l-17.067 85.333h-384v-725.333h85.333v298.667h238.933l17.067-85.333h298.667v426.667z" />
<glyph unicode="&#xe70c;" glyph-name="forward" d="M512 597.334v170.667l341.333-341.333-341.333-341.333v170.667h-341.333v341.333z" />
<glyph unicode="&#xe70d;" glyph-name="gesture" d="M196.053 644.907c29.867 30.507 59.733 57.813 73.173 52.267 21.12-8.747-0.427-44.373-12.8-65.067-10.667-17.92-122.027-165.76-122.027-269.227 0-54.613 20.267-99.84 57.387-127.147 32-23.68 74.027-30.933 112.64-19.627 45.653 13.44 83.2 59.52 130.56 117.973 51.627 63.573 120.747 146.773 174.080 146.773 69.547 0 70.4-43.093 75.093-76.587-161.707-27.733-229.76-156.8-229.76-229.547s61.44-132.053 136.747-132.053c69.333 0 183.253 56.747 200.107 260.267h104.747v106.667h-105.387c-6.4 70.4-46.507 178.987-171.947 178.987-96 0-178.56-81.493-210.56-121.387-24.747-30.933-87.68-105.6-97.493-116.267-10.88-12.587-28.8-35.84-47.573-35.84-18.987 0-30.507 35.627-15.573 82.133 14.933 46.72 59.733 122.027 78.933 149.973 33.493 48.64 55.253 82.133 55.253 139.947 0 93.867-69.973 123.307-107.093 123.307-56.32 0-105.387-42.667-116.267-53.547-15.147-15.36-27.947-27.947-37.333-39.467l75.093-72.533zM592.427 146.987c-13.227 0-31.36 11.093-31.36 30.933 0 25.6 30.933 93.867 122.667 117.973-13.227-114.987-61.44-148.907-91.307-148.907z" />
<glyph unicode="&#xe70e;" glyph-name="inbox" d="M810.667 810.667h-597.76c-47.147 0-84.48-38.187-84.48-85.333l-0.427-597.333c0-47.147 37.76-85.333 84.907-85.333h597.76c47.147 0 85.333 38.187 85.333 85.333v597.333c0 47.147-38.187 85.333-85.333 85.333zM810.667 298.667h-170.667c0-70.613-57.387-128-128-128s-128 57.387-128 128h-171.093v426.667h597.76v-426.667zM682.667 512h-85.333v128h-170.667v-128h-85.333l170.667-170.667 170.667 170.667z" />
<glyph unicode="&#xe70f;" glyph-name="link" d="M166.4 426.667c0 72.96 59.307 132.267 132.267 132.267h170.667v81.067h-170.667c-117.76 0-213.333-95.573-213.333-213.333s95.573-213.333 213.333-213.333h170.667v81.067h-170.667c-72.96 0-132.267 59.307-132.267 132.267zM341.333 384h341.333v85.333h-341.333v-85.333zM725.333 640h-170.667v-81.067h170.667c72.96 0 132.267-59.307 132.267-132.267s-59.307-132.267-132.267-132.267h-170.667v-81.067h170.667c117.76 0 213.333 95.573 213.333 213.333s-95.573 213.333-213.333 213.333z" />
<glyph unicode="&#xe710;" glyph-name="mail" d="M853.333 768h-682.667c-47.147 0-84.907-38.187-84.907-85.333l-0.427-512c0-47.147 38.187-85.333 85.333-85.333h682.667c47.147 0 85.333 38.187 85.333 85.333v512c0 47.147-38.187 85.333-85.333 85.333zM853.333 597.334l-341.333-213.333-341.333 213.333v85.333l341.333-213.333 341.333 213.333v-85.333z" />
<glyph unicode="&#xe711;" glyph-name="markunread" d="M853.333 768h-682.667c-47.147 0-84.907-38.187-84.907-85.333l-0.427-512c0-47.147 38.187-85.333 85.333-85.333h682.667c47.147 0 85.333 38.187 85.333 85.333v512c0 47.147-38.187 85.333-85.333 85.333zM853.333 597.334l-341.333-213.333-341.333 213.333v85.333l341.333-213.333 341.333 213.333v-85.333z" />
<glyph unicode="&#xe712;" glyph-name="redo" d="M784.853 486.4c-78.507 68.907-181.333 110.933-294.187 110.933-198.4 0-366.293-129.28-424.96-308.053l100.907-33.28c44.8 136.32 172.8 234.667 324.053 234.667 83.413 0 159.147-30.72 218.24-80.427l-154.24-154.24h384v384l-153.813-153.6z" />
<glyph unicode="&#xe713;" glyph-name="remove" d="M810.667 384h-597.333v85.333h597.333v-85.333z" />
<glyph unicode="&#xe714;" glyph-name="remove-circle" d="M512 853.334c-235.733 0-426.667-190.933-426.667-426.667s190.933-426.667 426.667-426.667 426.667 190.933 426.667 426.667-190.933 426.667-426.667 426.667zM725.333 384h-426.667v85.333h426.667v-85.333z" />
<glyph unicode="&#xe715;" glyph-name="remove-circle-outline" d="M298.667 469.334v-85.333h426.667v85.333h-426.667zM512 853.334c-235.733 0-426.667-190.933-426.667-426.667s190.933-426.667 426.667-426.667 426.667 190.933 426.667 426.667-190.933 426.667-426.667 426.667zM512 85.334c-188.16 0-341.333 153.173-341.333 341.333s153.173 341.333 341.333 341.333 341.333-153.173 341.333-341.333-153.173-341.333-341.333-341.333z" />
<glyph unicode="&#xe716;" glyph-name="reply" d="M426.667 554.667v170.667l-298.667-298.667 298.667-298.667v174.933c213.333 0 362.667-68.267 469.333-217.6-42.667 213.333-170.667 426.667-469.333 469.333z" />
<glyph unicode="&#xe717;" glyph-name="reply-all" d="M298.667 597.334v128l-298.667-298.667 298.667-298.667v128l-170.667 170.667 170.667 170.667zM554.667 554.667v170.667l-298.667-298.667 298.667-298.667v174.933c213.333 0 362.667-68.267 469.333-217.6-42.667 213.333-170.667 426.667-469.333 469.333z" />
<glyph unicode="&#xe718;" glyph-name="report" d="M671.147 810.667h-318.293l-224.853-224.853v-318.080l224.853-225.067h318.080l225.067 224.853v318.293l-224.853 224.853zM512 200.534c-30.507 0-55.467 24.747-55.467 55.467 0 30.507 24.96 55.467 55.467 55.467s55.467-24.747 55.467-55.467c0-30.72-24.96-55.467-55.467-55.467zM554.667 384h-85.333v256h85.333v-256z" />
<glyph unicode="&#xe71a;" glyph-name="select-all" d="M128 725.334h85.333v85.333c-47.147 0-85.333-38.187-85.333-85.333zM128 384h85.333v85.333h-85.333v-85.333zM298.667 42.667h85.333v85.333h-85.333v-85.333zM128 554.667h85.333v85.333h-85.333v-85.333zM554.667 810.667h-85.333v-85.333h85.333v85.333zM810.667 810.667v-85.333h85.333c0 47.147-38.187 85.333-85.333 85.333zM213.333 42.667v85.333h-85.333c0-47.147 38.187-85.333 85.333-85.333zM128 213.334h85.333v85.333h-85.333v-85.333zM384 810.667h-85.333v-85.333h85.333v85.333zM469.333 42.667h85.333v85.333h-85.333v-85.333zM810.667 384h85.333v85.333h-85.333v-85.333zM810.667 42.667c47.147 0 85.333 38.187 85.333 85.333h-85.333v-85.333zM810.667 554.667h85.333v85.333h-85.333v-85.333zM810.667 213.334h85.333v85.333h-85.333v-85.333zM640 42.667h85.333v85.333h-85.333v-85.333zM640 725.334h85.333v85.333h-85.333v-85.333zM298.667 213.334h426.667v426.667h-426.667v-426.667zM384 554.667h256v-256h-256v256z" />
<glyph unicode="&#xe71b;" glyph-name="send" d="M85.76 42.667l895.573 384-895.573 384-0.427-298.667 640-85.333-640-85.333z" />
<glyph unicode="&#xe71c;" glyph-name="sort" d="M128 170.667h256v85.333h-256v-85.333zM128 682.667v-85.333h768v85.333h-768zM128 384h512v85.333h-512v-85.333z" />
<glyph unicode="&#xe71d;" glyph-name="text-format" d="M213.333 213.334v-85.333h597.333v85.333h-597.333zM405.333 392.534h213.333l38.4-93.867h89.6l-202.667 469.333h-64l-202.667-469.333h89.6l38.4 93.867zM512 683.52l79.787-214.187h-159.573l79.787 214.187z" />
<glyph unicode="&#xe71e;" glyph-name="undo" d="M533.333 597.334c-112.853 0-215.68-42.027-294.4-110.933l-153.6 153.6v-384h384l-154.24 154.24c59.093 49.707 134.827 80.427 218.24 80.427 151.253 0 279.253-98.347 324.053-234.667l100.907 33.28c-58.667 178.773-226.56 308.053-424.96 308.053z" />
<glyph unicode="&#xe73a;" glyph-name="brightness-auto" d="M462.933 398.934h98.133l-49.067 155.733-49.067-155.733zM853.333 568.107v199.893h-199.893l-141.44 141.44-141.44-141.44h-199.893v-199.893l-141.44-141.44 141.44-141.44v-199.893h199.893l141.44-141.44 141.44 141.44h199.893v199.893l141.44 141.44-141.44 141.44zM610.133 256l-29.867 85.333h-136.533l-29.867-85.333h-81.067l136.533 384h85.333l136.533-384h-81.067z" />
<glyph unicode="&#xe73b;" glyph-name="brightness-high" d="M853.333 568.107v199.893h-199.893l-141.44 141.44-141.44-141.44h-199.893v-199.893l-141.44-141.44 141.44-141.44v-199.893h199.893l141.44-141.44 141.44 141.44h199.893v199.893l141.44 141.44-141.44 141.44zM512 170.667c-141.44 0-256 114.56-256 256s114.56 256 256 256 256-114.56 256-256-114.56-256-256-256zM512 597.334c-94.293 0-170.667-76.373-170.667-170.667s76.373-170.667 170.667-170.667 170.667 76.373 170.667 170.667-76.373 170.667-170.667 170.667z" />
<glyph unicode="&#xe73c;" glyph-name="brightness-low" d="M853.333 285.227l141.44 141.44-141.44 141.44v199.893h-199.893l-141.44 141.44-141.44-141.44h-199.893v-199.893l-141.44-141.44 141.44-141.44v-199.893h199.893l141.44-141.44 141.44 141.44h199.893v199.893zM512 170.667c-141.44 0-256 114.56-256 256s114.56 256 256 256 256-114.56 256-256-114.56-256-256-256z" />
<glyph unicode="&#xe73d;" glyph-name="brightness-medium" d="M853.333 285.227l141.44 141.44-141.44 141.44v199.893h-199.893l-141.44 141.44-141.44-141.44h-199.893v-199.893l-141.44-141.44 141.44-141.44v-199.893h199.893l141.44-141.44 141.44 141.44h199.893v199.893zM512 170.667v512c141.44 0 256-114.56 256-256s-114.56-256-256-256z" />
<glyph unicode="&#xe73e;" glyph-name="data-usage" d="M554.667 851.2v-129.28c144.64-20.693 256-144.853 256-295.253 0-38.187-7.467-74.667-20.48-108.16l110.933-65.493c23.68 53.12 37.547 111.573 37.547 173.653 0 221.227-168.32 402.987-384 424.533zM512 128c-164.907 0-298.667 133.76-298.667 298.667 0 150.4 111.36 274.56 256 295.253v129.28c-215.893-21.333-384-203.307-384-424.533 0-235.733 190.72-426.667 426.453-426.667 141.227 0 266.027 68.907 343.68 174.507l-110.72 65.28c-54.613-68.053-138.453-111.787-232.747-111.787z" />
<glyph unicode="&#xe73f;" glyph-name="developer-mode" d="M298.667 721.707h426.667v-85.333h85.333v170.667c0 47.147-38.187 84.907-85.333 84.907l-426.667 0.427c-47.147 0-85.333-38.187-85.333-85.333v-170.667h85.333v85.333zM657.707 227.414l195.627 195.627-195.627 195.627-60.373-60.373 135.253-135.253-135.253-135.467 60.373-60.16zM426.667 287.574l-135.253 135.253 135.253 135.467-60.373 60.373-195.627-195.627 195.627-195.627 60.373 60.16zM725.333 124.374h-426.667v85.333h-85.333v-170.667c0-47.147 38.187-85.333 85.333-85.333h426.667c47.147 0 85.333 38.187 85.333 85.333v170.667h-85.333v-85.333z" />
</font>
</defs>
</svg>
