<?xml version="1.0" standalone="no"?>
<!DOCTYPE svg PUBLIC "-//W3C//DTD SVG 20010904//EN"
 "http://www.w3.org/TR/2001/REC-SVG-20010904/DTD/svg10.dtd">
<svg version="1.0" xmlns="http://www.w3.org/2000/svg"
 width="724.000000pt" height="724.000000pt" viewBox="0 0 724.000000 724.000000"
 preserveAspectRatio="xMidYMid meet">
<metadata>
Created by potrace 1.11, written by Peter Selinger 2001-2013
</metadata>
<g transform="translate(0.000000,724.000000) scale(0.100000,-0.100000)"
fill="#000000" stroke="none">
<path d="M3495 7218 c-33 -11 -64 -23 -70 -28 -5 -4 -26 -17 -45 -28 -46 -26
-208 -120 -242 -141 -14 -9 -57 -34 -95 -56 -82 -48 -76 -44 -210 -124 -104
-62 -246 -145 -308 -181 -16 -10 -77 -46 -135 -80 -58 -34 -125 -74 -150 -88
-25 -14 -57 -33 -72 -43 -14 -11 -29 -19 -33 -19 -3 0 -31 -16 -61 -35 -30
-19 -56 -35 -58 -35 -3 0 -41 -22 -86 -50 -45 -27 -86 -50 -91 -50 -5 0 -9 -4
-9 -8 0 -4 -12 -13 -27 -20 -16 -6 -46 -23 -68 -37 -22 -14 -49 -30 -60 -35
-11 -6 -38 -21 -60 -35 -22 -14 -58 -35 -79 -46 -22 -12 -46 -28 -54 -35 -7
-8 -18 -14 -24 -14 -5 0 -30 -13 -55 -30 -24 -16 -46 -30 -48 -30 -2 0 -39
-21 -82 -47 -133 -79 -297 -175 -318 -187 -265 -148 -362 -227 -421 -343 l-30
-58 0 -1715 c1 -1288 4 -1720 13 -1735 6 -11 17 -35 24 -54 18 -47 81 -106
203 -189 59 -40 109 -72 112 -72 3 0 31 -17 62 -38 31 -22 62 -41 67 -43 6 -2
132 -77 280 -165 149 -89 286 -171 305 -183 19 -11 44 -25 55 -30 11 -5 37
-21 58 -35 21 -14 40 -26 42 -26 2 0 40 -22 85 -50 45 -27 83 -50 85 -50 2 0
40 -22 85 -50 45 -27 84 -50 86 -50 3 0 25 -13 49 -30 24 -16 46 -30 50 -30 3
0 24 -12 48 -27 23 -15 44 -28 47 -28 3 0 23 -12 45 -25 23 -14 50 -30 60 -37
11 -6 118 -69 238 -140 120 -70 230 -135 245 -144 51 -31 207 -122 252 -147
25 -14 62 -36 82 -49 21 -12 41 -23 45 -23 3 0 14 -6 22 -14 19 -16 147 -88
211 -118 52 -25 82 -30 165 -30 108 -1 136 8 261 82 47 28 89 50 94 50 6 0 10
4 10 9 0 5 9 12 20 16 16 5 172 94 220 125 8 6 22 13 30 17 8 3 39 21 68 40
29 18 56 33 61 33 5 0 11 3 13 8 2 4 19 16 38 26 57 31 83 46 115 66 17 10 66
39 110 64 108 62 139 80 145 86 3 3 16 11 30 18 14 7 41 22 60 33 67 41 375
222 403 238 16 9 36 21 45 26 112 68 194 115 201 115 5 0 11 3 13 8 3 7 85 57
198 119 25 14 52 32 61 39 8 8 19 14 22 14 4 0 44 23 88 50 44 28 83 50 85 50
2 0 21 11 42 24 20 13 56 35 78 48 319 180 422 246 491 317 40 41 73 78 73 82
0 4 10 25 23 46 l22 38 2 1686 c2 1801 4 1741 -47 1839 -29 57 -111 137 -175
172 -121 64 -270 73 -374 21 -63 -31 -259 -139 -336 -184 -27 -16 -59 -34 -70
-40 -11 -5 -29 -15 -40 -22 -87 -51 -622 -366 -648 -381 -17 -10 -131 -77
-252 -150 -121 -72 -224 -133 -230 -135 -5 -2 -14 -8 -20 -13 -5 -5 -44 -30
-85 -56 -101 -63 -194 -136 -224 -175 -93 -123 -92 -369 2 -496 115 -155 278
-221 462 -186 33 6 97 35 185 85 57 32 232 133 285 164 25 15 53 29 63 33 9 3
17 9 17 14 0 5 4 9 9 9 9 0 59 28 291 165 63 37 138 80 165 95 28 15 66 37 85
49 19 11 38 21 42 21 4 0 6 -478 5 -1062 l-2 -1061 -60 -37 c-33 -20 -79 -48
-102 -61 -23 -13 -112 -66 -198 -116 -86 -51 -160 -93 -165 -93 -6 0 -10 -3
-10 -7 0 -5 -10 -13 -23 -19 -17 -8 -405 -235 -467 -273 -90 -56 -368 -217
-377 -219 -7 -2 -13 -8 -13 -13 0 -5 -4 -9 -9 -9 -5 0 -47 -22 -93 -49 -45
-27 -139 -82 -208 -122 -234 -136 -325 -190 -340 -199 -8 -6 -26 -16 -40 -22
-14 -7 -27 -15 -30 -18 -3 -3 -25 -16 -51 -29 l-45 -24 -50 28 c-27 15 -69 39
-94 53 -25 13 -53 31 -62 40 -10 8 -18 11 -18 7 0 -4 -8 -1 -17 7 -10 8 -43
28 -73 44 -30 16 -57 31 -60 34 -4 5 -140 86 -235 140 -16 9 -86 50 -155 91
-69 42 -132 78 -140 82 -8 4 -33 18 -55 32 -22 14 -51 31 -65 38 -14 6 -27 14
-30 18 -3 3 -36 23 -75 44 -38 21 -72 41 -75 44 -9 10 -64 42 -83 48 -9 3 -17
9 -17 14 0 5 -5 9 -11 9 -13 0 -131 70 -140 83 -3 5 -8 7 -10 6 -2 -1 -55 27
-117 64 -62 37 -117 67 -122 67 -6 0 -10 4 -10 8 0 4 -19 18 -42 30 -24 12
-50 26 -58 32 -53 34 -152 90 -160 90 -6 0 -10 5 -10 10 0 6 -7 10 -15 10 -8
0 -15 3 -15 8 0 4 -14 13 -32 21 -18 8 -66 36 -107 61 l-76 47 -1 1319 c-1
725 0 1327 3 1336 2 10 43 40 91 68 98 58 106 62 179 108 30 17 55 32 58 32 6
0 108 62 115 69 3 4 23 15 45 27 48 25 326 188 375 219 19 13 139 83 265 157
127 75 292 172 368 217 76 44 142 81 147 81 6 0 10 4 10 9 0 5 8 11 18 15 9 3
31 14 47 23 76 46 274 163 310 183 22 13 63 36 90 52 115 66 105 65 176 25 35
-19 80 -44 99 -56 19 -11 53 -31 75 -43 22 -12 47 -27 57 -33 16 -10 147 -86
199 -116 16 -9 36 -22 44 -29 8 -7 15 -9 15 -5 0 5 8 1 18 -7 9 -8 37 -26 62
-40 25 -14 63 -36 85 -49 171 -98 273 -152 317 -170 189 -74 437 31 536 229
27 56 30 69 31 174 2 132 -11 185 -63 264 -34 50 -97 105 -156 136 -14 7 -29
17 -35 21 -25 20 -115 75 -115 71 0 -3 -15 6 -33 20 -19 15 -39 26 -45 26 -6
0 -16 8 -21 18 -6 9 -11 14 -11 10 0 -7 -161 89 -187 112 -7 5 -15 10 -19 10
-7 0 -126 71 -134 80 -3 3 -26 17 -52 30 -26 14 -95 54 -155 89 -201 120 -305
181 -308 181 -2 0 -26 13 -52 28 -27 16 -60 31 -73 35 -14 3 -36 8 -50 11 -61
16 -166 13 -225 -6z"/>
<path d="M3494 4055 c-63 -12 -135 -41 -173 -71 -96 -77 -164 -184 -186 -296
-7 -32 -7 -139 -1 -163 3 -11 9 -36 14 -56 15 -61 64 -140 121 -196 29 -29 59
-53 66 -53 7 0 15 -5 17 -10 2 -6 36 -22 76 -36 218 -75 444 5 560 199 42 69
58 140 56 240 -3 143 -27 205 -114 300 -44 48 -150 127 -150 112 0 -3 -12 1
-27 9 -54 27 -173 37 -259 21z"/>
</g>
</svg>
